<svg width="393" height="249" viewBox="0 0 393 249" fill="none" xmlns="http://www.w3.org/2000/svg">
<mask id="mask0_2007_515" style="mask-type:alpha" maskUnits="userSpaceOnUse" x="-94" y="0" width="578" height="173">
<rect x="-94" width="578" height="173" fill="#D9D9D9"/>
</mask>
<g mask="url(#mask0_2007_515)">
<path d="M-16.5449 23.0492C157.729 -58.9636 252.788 111.135 412.858 23.0492C572.928 -65.0371 412.858 3908 412.858 3908H-16.5449C-16.5449 3908 -190.819 105.062 -16.5449 23.0492Z" fill="#E5647E"/>
</g>
<mask id="mask1_2007_515" style="mask-type:alpha" maskUnits="userSpaceOnUse" x="-69" y="76" width="578" height="173">
<rect x="509" y="249" width="578" height="173" transform="rotate(180 509 249)" fill="#D9D9D9"/>
</mask>
<g mask="url(#mask1_2007_515)">
<path d="M431.545 225.951C257.271 307.964 162.212 137.865 2.14221 225.951C-157.928 314.037 2.14221 -3659 2.14221 -3659H431.545C431.545 -3659 605.819 143.938 431.545 225.951Z" fill="#E5647E"/>
</g>
</svg>
