<svg width="263" height="13" viewBox="0 0 263 13" fill="none" xmlns="http://www.w3.org/2000/svg">
<g clip-path="url(#clip0_134_187)">
<path fill-rule="evenodd" clip-rule="evenodd" d="M73.0311 0.148969V0C72.8895 0 72.7323 0 72.5908 0C72.8424 0.1589 72.5908 0.0595875 73.0311 0.148969Z" fill="#FFA4BD"/>
<path fill-rule="evenodd" clip-rule="evenodd" d="M175.296 5.13466V4.99562C175.454 4.94597 175.595 4.90624 175.753 4.85659V4.43947C175.312 4.35009 175.564 4.45934 175.328 4.29051H175.108C175.108 4.29051 175.108 4.19119 175.108 4.15147H175.328C175.328 4.15147 175.312 3.60525 175.108 3.87339V4.01243C175.108 4.01243 174.95 4.01243 174.888 4.01243C174.966 3.87339 175.045 3.73436 175.123 3.59532C174.966 3.64498 174.825 3.6847 174.667 3.73436C174.605 3.40663 174.542 3.07889 174.463 2.75116C174.023 2.79089 173.567 2.84054 173.126 2.88027C173.378 3.03917 173.126 2.93986 173.567 3.02924C173.409 3.30731 173.661 3.15834 173.331 3.30731V3.16828C173.331 3.16828 173.189 3.16828 173.111 3.16828V3.30731C172.953 3.25766 172.812 3.208 172.67 3.15834V3.43642C172.371 3.43642 172.073 3.43642 171.774 3.43642C171.695 3.33711 171.632 3.24773 171.554 3.14841H171.113C171.176 3.33711 171.255 3.51587 171.318 3.70456H170.877C170.736 3.3669 170.815 3.43642 170.437 3.27752C170.311 2.99944 170.469 3.15834 170.217 2.98951V3.26759C170.138 3.37683 169.714 3.31724 169.761 3.54566H169.981C169.981 3.54566 169.981 3.64498 169.981 3.6847C169.651 3.59532 169.619 3.56553 169.1 3.53573V3.95284C168.644 3.90319 168.204 3.85353 167.764 3.80388V3.38676C167.921 3.38676 168.063 3.38676 168.22 3.38676V3.24773C167.591 3.27752 167.418 3.29738 167.103 3.51587H166.883C166.883 3.51587 166.883 3.60525 166.883 3.65491H167.323C167.323 3.70456 167.323 3.75422 167.323 3.80388H166.663C166.537 3.51587 166.694 3.67477 166.443 3.51587C166.285 3.8436 166.38 3.77408 165.987 3.93298V4.21106C165.908 4.21106 165.829 4.21106 165.751 4.21106L165.987 3.79394C165.767 3.74429 165.546 3.69463 165.326 3.64498V3.78401C165.169 3.78401 165.027 3.78401 164.886 3.78401V3.92305C164.666 3.97271 164.43 4.01243 164.21 4.06209V4.4792C164.131 4.4792 164.052 4.4792 163.974 4.4792V4.61824C163.974 4.61824 163.817 4.61824 163.754 4.61824C163.659 4.51892 164.194 4.33023 163.99 4.06209C163.769 4.01243 163.549 3.96278 163.329 3.91312L163.565 3.63504C163.172 3.63504 161.788 3.76415 161.788 3.76415C161.709 3.67477 161.646 3.57546 161.568 3.48608H160.671C160.671 3.48608 160.671 3.57546 160.671 3.61518C160.262 3.65491 160.231 3.46621 160.231 3.46621H160.011C160.011 3.46621 160.011 3.55559 160.011 3.60525C159.869 3.55559 159.712 3.50594 159.571 3.45628C159.319 3.70456 159.067 3.66484 158.894 3.87339C159.162 3.97271 159.083 3.81381 159.114 4.01243H158.674C158.674 4.15147 158.674 4.29051 158.674 4.42954H158.454C158.375 4.29051 158.312 4.14154 158.234 4.0025C157.935 4.04223 157.636 4.09188 157.337 4.13161L157.117 3.99257V4.13161C157.117 4.13161 156.96 4.13161 156.897 4.13161L157.133 3.85353C156.583 3.85353 156.331 3.85353 156.016 3.98264V4.12168C155.859 4.12168 155.718 4.12168 155.56 4.12168C155.639 4.21106 155.702 4.31037 155.781 4.39975H155.56C155.482 4.53879 155.403 4.67782 155.325 4.81686C154.727 4.58844 154.931 4.45934 154.004 4.37989C154.192 4.20112 154.161 4.21106 154.46 4.10181V3.96278C153.548 4.11174 154.129 4.22099 153.783 4.37989C153.783 4.37989 153.154 4.24085 152.903 4.23092V3.95284C152.635 3.73436 152.683 4.21106 152.683 4.23092C152.4 4.29051 152.337 4.03229 152.242 3.94291H152.022C152.022 4.08195 152.022 4.22099 152.022 4.36002H152.242C151.912 4.85659 151.786 4.25078 151.11 4.91617C150.733 4.86652 150.371 4.81686 149.993 4.76721L150.45 4.35009C150.229 4.30044 150.009 4.25078 149.789 4.20112V4.90624C149.553 4.90624 149.333 4.90624 149.113 4.90624L148.893 4.61824C148.452 4.70762 147.996 4.797 147.556 4.88638V4.60831C147.446 4.49906 147.257 4.96583 146.88 5.02542V4.88638C146.251 4.87645 145.936 4.82679 145.559 4.73741C145.496 4.49906 145.417 4.27064 145.354 4.03229H145.574C145.653 3.75422 145.732 3.47614 145.81 3.19807H145.59C145.417 3.11862 145.669 2.98951 145.37 3.0491V3.18814C145.213 3.23779 145.071 3.27752 144.914 3.32718V3.18814C144.914 3.18814 144.772 3.18814 144.694 3.18814V3.0491C144.851 3.09876 144.993 3.14841 145.134 3.19807L145.37 2.78096H145.15C145.15 2.68164 145.15 2.59226 145.15 2.50288H144.489C144.489 2.59226 144.489 2.68164 144.489 2.78096C144.238 2.66178 144.458 2.80082 144.269 2.64192C143.797 2.44329 143.656 2.27446 143.624 1.78783C142.948 1.91694 142.256 1.78783 141.847 1.35086C141.847 1.35086 140.983 1.36079 141.391 1.4899H141.612C141.612 1.4899 141.612 1.58921 141.612 1.62893C141.171 1.70838 141.423 1.60907 141.156 1.76797H140.935C141.014 1.62893 141.093 1.4899 141.171 1.35086C140.243 1.31113 140.133 1.15223 139.394 1.05292V1.47003C138.356 1.12244 138.23 1.23168 136.941 1.31113V1.58921C136.689 1.53955 136.013 1.40051 135.604 1.57928V1.71831C135.604 1.71831 135.447 1.71831 135.384 1.71831V1.3012C135.384 1.3012 134.535 1.31113 134.944 1.44024H135.164C135.164 1.44024 135.164 1.53955 135.164 1.57928H134.724C134.724 1.43031 134.724 1.29127 134.724 1.15223C134.283 1.19196 133.827 1.24161 133.387 1.28134V0.864227C133.544 0.864227 133.686 0.864227 133.843 0.864227V0.725189C133.623 0.725189 133.403 0.725189 133.182 0.725189C133.104 0.864227 133.025 1.00326 132.947 1.1423H132.506C132.506 1.23168 132.506 1.32106 132.506 1.42038C132.129 1.4601 131.767 1.50976 131.39 1.54948V1.13237C131.17 1.13237 130.949 1.13237 130.729 1.13237C130.651 1.27141 130.572 1.41045 130.493 1.54948C130.053 1.62893 130.305 1.52962 130.053 1.68852H129.833C129.833 1.54948 129.833 1.40051 129.833 1.26148H129.393C129.267 0.973471 129.424 1.13237 129.172 0.973471C128.984 1.13237 129.204 0.993333 128.952 1.11251C129.125 1.3012 129.094 1.28134 129.393 1.40051V1.53955C129.015 1.57928 128.638 1.62893 128.276 1.66866C128.355 1.8077 128.418 1.94673 128.496 2.0957C128.134 1.95666 127.757 1.8077 127.395 1.66866C127.159 1.79776 127.474 1.7779 127.175 1.8077C127.097 1.66866 127.034 1.52962 126.955 1.38065C125.838 1.38065 125.886 1.47003 126.059 1.9368C125.838 1.88715 125.618 1.83749 125.398 1.78783C125.209 1.62893 125.43 1.76797 125.178 1.6488V1.50976C125.335 1.55941 125.477 1.60907 125.618 1.65873V1.51969C125.618 1.51969 125.776 1.51969 125.838 1.51969V1.38065C125.398 1.331 124.958 1.28134 124.518 1.23168V1.37072C124.518 1.37072 123.134 1.49983 123.841 1.50976H124.061C124.061 1.50976 124.061 1.60907 124.061 1.6488H123.841C123.841 1.6488 123.841 1.54948 123.841 1.50976H122.945C122.945 1.45017 122.945 1.41045 122.945 1.36079C122.803 1.4601 122.63 1.36079 122.709 1.63886H122.929C122.929 1.63886 122.929 1.73818 122.929 1.7779H122.709C122.709 1.7779 122.709 1.86728 122.709 1.91694C122.222 2.02618 121.954 1.62893 121.828 1.4899H121.388C121.561 1.66866 121.53 1.65873 121.828 1.76797V1.90701C121.608 1.95666 121.372 1.99639 121.152 2.04604C120.995 1.62893 120.806 1.69845 120.728 1.20189C120.476 1.32106 120.696 1.18203 120.507 1.34093C120.507 1.34093 119.69 1.3012 120.067 1.47996H120.287C120.287 1.47996 120.287 1.57928 120.287 1.619H120.067C120.067 1.619 120.067 1.70838 120.067 1.75804H120.287C120.02 2.17515 120.319 1.91694 119.611 1.89708C119.863 2.13543 119.737 2.0957 120.272 2.18508V2.32412C120.114 2.32412 119.973 2.32412 119.831 2.32412V2.46316C120.161 2.5724 120.036 2.7313 120.036 3.02924H119.815C119.753 2.70151 119.69 2.37378 119.611 2.04604C119.124 1.97653 118.982 1.94673 118.73 1.75804H118.51C118.589 1.89708 118.652 2.03611 118.73 2.17515H118.51C118.51 2.17515 118.51 2.07584 118.51 2.03611C118.07 2.0957 117.944 2.29433 117.834 2.59226H117.614C117.614 2.45323 117.614 2.30426 117.614 2.16522H117.394C117.142 2.39364 117.331 2.02618 116.953 2.16522C116.875 2.30426 116.796 2.44329 116.717 2.58233H116.277C116.529 2.42343 116.277 2.52274 116.733 2.44329V2.30426C116.513 2.30426 116.293 2.30426 116.073 2.30426C115.931 2.58233 116.104 2.42343 115.837 2.58233V2.72137C115.837 2.72137 115.68 2.72137 115.617 2.72137C115.758 2.51281 115.805 2.49295 115.853 2.16522H114.956C114.956 2.10563 114.956 2.06591 114.956 2.01625H114.736C114.736 2.15529 114.736 2.29433 114.736 2.43336C114.296 2.33405 113.855 2.23474 113.415 2.13543V2.27446C112.755 2.10563 113.163 2.29433 113.195 1.84742L112.519 1.98646C112.44 2.17515 112.361 2.36384 112.283 2.54261C112.063 2.49295 111.842 2.44329 111.622 2.39364V2.81075C111.544 2.81075 111.465 2.81075 111.386 2.81075V2.94979C111.386 2.94979 111.229 2.94979 111.166 2.94979V2.38371C111.166 2.38371 111.025 2.38371 110.962 2.38371C110.836 2.10563 110.993 2.26453 110.742 2.10563L110.521 2.24467C110.6 2.38371 110.663 2.52274 110.742 2.67171L109.861 2.52274V2.66178C109.861 2.66178 109.704 2.66178 109.641 2.66178V2.80082C109.641 2.80082 109.782 2.80082 109.861 2.80082V2.93986C109.641 2.84054 109.421 2.75116 109.2 2.65185V2.51281C108.98 2.56247 108.76 2.60219 108.54 2.65185V2.37378C108.1 2.28439 108.351 2.39364 108.1 2.22481H107.879C107.958 2.36384 108.021 2.50288 108.1 2.64192L107.659 2.49295C107.565 2.61213 107.864 2.86041 107.423 2.77103L107.203 2.48302C106.48 2.27446 106.134 2.4135 105.662 2.04604H104.766C105.049 2.30426 104.986 2.27446 105.646 2.32412C105.442 2.54261 105.316 2.62206 104.97 2.74123V3.01931C104.892 3.01931 104.813 3.01931 104.734 3.01931V2.60219C104.451 2.60219 104.152 2.60219 103.854 2.60219V2.46316C103.712 2.51281 103.555 2.55254 103.413 2.60219C102.674 2.55254 101.935 2.49295 101.196 2.44329V2.72137C101.338 2.72137 101.479 2.72137 101.636 2.72137V2.99944C101.102 2.95972 101.086 2.93986 100.74 2.85048C100.567 3.25766 100.614 2.88027 100.74 3.26759C100.441 3.21793 100.142 3.16828 99.8593 3.11862L99.6234 3.39669H99.4032C99.4032 3.29738 99.4032 3.208 99.4032 3.10869C98.9786 3.21793 99.1044 3.22786 98.9472 3.5258C98.554 3.38676 97.9093 3.16828 97.6262 2.94979H96.7298C96.9814 3.17821 96.8556 3.13848 97.3903 3.22786C97.2173 3.63504 97.1387 3.69463 96.4939 3.78401C96.5726 3.64498 96.6512 3.50594 96.7298 3.3669C96.321 3.24773 96.148 3.14841 95.629 3.07889V3.49601C95.5504 3.49601 95.4718 3.49601 95.3931 3.49601C95.3145 3.35697 95.2516 3.21793 95.173 3.06896C94.2609 3.22786 94.8899 3.28745 94.4968 3.48608C94.2766 3.43642 94.0564 3.38676 93.8363 3.33711L94.0564 3.62511C93.8363 3.67477 93.6161 3.71449 93.3802 3.76415V3.62511C93.2387 3.67477 93.0814 3.71449 92.9399 3.76415V3.62511C92.6411 3.57546 92.358 3.5258 92.0592 3.47614C91.8863 3.85353 91.9963 3.79394 91.383 3.89326V3.61518C91.383 3.61518 90.5338 3.61518 90.9427 3.75422H91.1629C91.1629 3.85353 91.1629 3.94291 91.1629 4.03229C90.8798 3.88333 90.8326 3.74429 90.5024 3.60525C90.4237 3.69463 90.3451 3.79394 90.2665 3.88333H90.0463C90.0463 3.88333 90.0463 3.97271 90.0463 4.02236H90.2665C90.2665 4.02236 90.2665 4.12168 90.2665 4.1614L90.0463 4.02236L89.3701 4.1614C89.2286 4.11174 89.0713 4.06209 88.9298 4.01243C88.8512 4.10181 88.7725 4.20113 88.6939 4.29051C88.6939 4.29051 88.112 4.15147 87.8132 4.14154C88.0649 4.30044 87.8132 4.20113 88.2536 4.29051C88.0177 4.53879 88.112 4.26071 87.7975 4.42954C88.0334 4.65796 88.1278 4.65796 88.2221 4.99562C87.7346 4.92611 87.5931 4.89631 87.3415 4.70762H87.1213C87.1213 4.46927 87.1213 4.24085 87.137 4.0025H86.9169C86.7282 3.8436 86.9483 3.98264 86.6967 3.85353V3.99257C86.6967 3.99257 86.5395 3.99257 86.4765 3.99257V4.40968C86.3979 4.40968 86.3193 4.40968 86.2407 4.40968C86.0991 4.68776 86.2721 4.52886 86.0048 4.68776V4.40968C85.5644 4.3203 85.8161 4.42954 85.5644 4.26071H85.3443C85.3443 4.39975 85.3443 4.53879 85.3443 4.67782C85.1241 4.62817 84.904 4.57851 84.6838 4.52886V4.38982C84.385 4.34016 84.6838 4.41961 84.4636 4.52886C83.9289 4.53879 83.9132 4.44941 83.583 4.37989C83.2056 4.75727 82.6866 4.72748 82.4507 5.21411C81.6644 5.26377 81.3656 5.40281 80.658 5.48226C80.5007 5.09494 80.6108 5.16446 79.9975 5.05521V4.77714C79.5414 5.03535 80.0289 4.90624 79.7773 5.19425C79.6672 5.31342 79.1325 5.2737 79.3213 5.61136H79.5414C79.5414 5.71067 79.5414 5.80006 79.5414 5.89937H79.3213C79.3213 5.80006 79.3213 5.71067 79.3213 5.61136C78.8809 5.52198 79.1325 5.63122 78.8809 5.46239H78.4406C78.9281 5.15452 78.2676 5.1148 78.016 4.89631C78.4563 4.81686 78.2047 4.91617 78.4721 4.75727H78.9124C78.9124 4.75727 78.9124 4.66789 78.9124 4.61824H78.2519C78.2519 4.42954 78.2519 4.24085 78.2519 4.05216C78.6922 4.10181 79.1325 4.15147 79.5886 4.20112C79.9031 3.96277 80.0289 4.07202 80.0289 4.06209C80.1705 3.98264 80.6422 3.40663 80.7209 3.22786H80.941C80.941 3.08883 80.941 2.94979 80.941 2.81075H80.2805C80.2805 2.76109 80.2805 2.71144 80.2805 2.66178H80.7209C79.9188 2.13543 81.0354 2.10563 80.5164 1.53955H80.2963C80.2805 1.47996 80.3434 1.29127 80.0761 1.39058V1.66866C79.9975 1.66866 79.9188 1.66866 79.8402 1.66866C79.9188 1.52962 79.9975 1.39058 80.0761 1.25155H79.8559C79.8559 1.15223 79.8559 1.06285 79.8559 0.973471C79.3527 0.923814 79.2898 0.943677 78.9753 0.824502V0.685464C78.6765 0.685464 78.3777 0.685464 78.0946 0.685464V0.546427C77.5442 0.288215 77.5285 0.149177 76.5535 0.109452C76.3962 0.546427 76.1604 0.735121 76.0817 1.23168H75.4212C75.4212 1.13237 75.4212 1.04299 75.4212 0.943677H75.8616C75.8616 0.804639 75.8616 0.665602 75.8616 0.526564H75.6414C75.6414 0.526564 75.6414 0.427252 75.6414 0.387527C75.6414 0.387527 74.7922 0.387527 75.1853 0.526564H75.4055C75.4055 0.526564 75.4055 0.625877 75.4055 0.665602L75.1853 0.526564C74.8551 0.526564 74.8866 0.685464 74.7293 0.804639H74.5091C74.5878 0.665602 74.6664 0.526564 74.745 0.387527C75.1853 0.308077 74.9337 0.40739 75.1853 0.24849H75.4055C75.4055 0.24849 75.4055 0.159108 75.4055 0.109452C75.0124 0.159108 74.462 0.387527 74.289 0.377596C74.0845 0.367665 74.5563 0.0399335 74.0688 0.099521V0.238558C73.8486 0.288215 73.6128 0.32794 73.3926 0.377596V0.516633C73.3926 0.516633 73.2353 0.516633 73.1724 0.516633V0.377596C73.0309 0.377596 72.8736 0.377596 72.7321 0.377596V0.516633C72.7321 0.516633 72.5748 0.516633 72.5119 0.516633V0.377596C72.2132 0.377596 71.9144 0.377596 71.6313 0.377596V0.655671C71.8515 0.606014 72.0716 0.566289 72.2918 0.516633C72.4805 0.675533 72.2603 0.536496 72.5119 0.655671C72.3547 0.794708 72.2132 0.933746 72.0559 1.07278H71.3954C71.3954 0.973471 71.3954 0.884089 71.3954 0.784777C71.1752 0.735121 70.9551 0.685464 70.7349 0.635808V0.774846C70.7349 0.774846 70.5777 0.774846 70.5148 0.774846L70.7506 0.496771H70.5305C70.3418 0.337871 70.5619 0.476908 70.3103 0.347802V0.625877C69.6341 0.665602 68.9736 0.705327 68.2974 0.745052V0.606014C67.9986 0.606014 67.6998 0.606014 67.4167 0.606014V0.745052C66.9764 0.814571 66.6934 0.556358 66.5204 0.596083V0.735121C66.2216 0.874158 65.9385 0.834433 66.2845 1.0132V1.15223C66.0643 1.05292 65.8442 0.963539 65.624 0.864227V1.00326C65.624 1.00326 65.4667 1.00326 65.4038 1.00326V0.725189C64.822 0.705327 64.649 0.665602 64.303 0.576221L64.0671 0.854296H63.6268C64.02 1.13237 63.8941 0.834433 64.2873 0.993333C63.9571 1.18203 64.1458 1.20189 64.2873 1.41045C63.7526 1.20189 63.674 0.953608 62.9663 0.834433V1.25155C62.8877 1.25155 62.8091 1.25155 62.7304 1.25155V0.973471C62.5889 0.973471 62.4474 0.973471 62.2901 0.973471V1.25155C62.2115 1.25155 62.1328 1.25155 62.0542 1.25155V1.11251C61.7554 1.06285 61.5038 1.47996 61.378 1.52962H60.7175C60.7961 1.619 60.8591 1.70838 60.9377 1.8077C60.6074 1.91694 60.4974 1.65873 60.4974 1.65873C60.1986 1.62893 60.1671 1.82756 60.0413 1.9368H59.8211L60.0413 1.79776C59.9627 1.65873 59.8998 1.51969 59.8211 1.37072H59.3808C59.3808 1.4601 59.3808 1.54948 59.3808 1.6488H58.9405C58.9719 1.1721 58.9405 1.13237 59.3965 0.943677V0.804639C58.4687 0.834433 58.3586 0.983402 57.6195 1.07278V1.35086C57.3836 1.35086 57.1635 1.35086 56.9433 1.35086V1.21182C56.9433 1.21182 57.1006 1.21182 57.1635 1.21182C56.9905 1.04299 57.1792 1.20189 56.9433 1.07278C56.7546 0.913883 56.9748 1.05292 56.7231 0.933746V1.21182C56.4872 1.21182 56.2671 1.21182 56.0469 1.21182V1.4899C55.8897 1.44024 55.7481 1.39058 55.5909 1.34093H55.3707C55.3707 1.34093 55.3707 1.43031 55.3707 1.47996C55.3707 1.47996 54.5215 1.47996 54.9304 1.619H55.1505C55.1505 1.619 55.1505 1.71831 55.1505 1.75804C54.4743 1.43031 54.8518 1.49983 54.9461 0.913883C54.7259 0.963539 54.5058 1.00326 54.2699 1.05292C54.1284 1.36079 54.0812 1.41045 53.8138 1.60907H53.5937C53.5151 1.74811 53.4364 1.88715 53.3578 2.02618L52.9175 1.87721V2.29433C52.8388 2.29433 52.7602 2.29433 52.6816 2.29433V2.15529C52.3356 1.9368 52.5243 2.06591 52.9175 1.87721V1.73818C52.257 1.68852 52.4614 1.57928 51.8009 1.72825V1.86728C51.6437 1.81763 51.5021 1.76797 51.3606 1.71831C51.1876 1.79776 51.2191 1.89708 50.9046 1.99639V1.71831C50.5429 1.66866 50.1654 1.619 49.8037 1.56935V1.84742C49.6465 1.84742 49.5049 1.84742 49.3477 1.84742V1.98646C49.7566 2.08577 49.5993 1.88715 49.788 2.13543C49.0332 2.30426 48.7029 2.13543 48.4356 2.68164H48.2154C48.3412 2.34398 48.4828 2.24467 48.6715 1.97653H48.4513C48.4513 1.97653 48.4513 1.87721 48.4513 1.83749H48.2312C48.0739 1.97653 47.9324 2.11556 47.7751 2.2546H46.8787C46.8787 2.2546 46.8787 2.34398 46.8787 2.38371H46.4384C46.4384 2.38371 46.4384 2.47309 46.4384 2.52274C46.0767 2.58233 46.0138 2.38371 45.9981 2.37378C45.7779 2.42343 45.5577 2.46316 45.3219 2.51281C45.3219 2.51281 45.0231 2.2546 44.8815 2.22481V2.36384C44.7085 2.42343 44.4255 2.64192 44.4255 2.64192H43.765C43.4505 2.67171 43.8436 2.82068 43.5448 2.77103V2.63199C43.4033 2.63199 43.246 2.63199 43.1045 2.63199V2.91006C43.5448 2.99944 43.2932 2.8902 43.5448 3.05903H43.3247C43.136 3.21793 43.3561 3.07889 43.1045 3.19807V2.91999C41.8622 2.88027 42.0194 2.67171 40.8872 2.62206V2.90013C41.0287 2.90013 41.1702 2.90013 41.3275 2.90013C41.1859 3.17821 41.3589 3.01931 41.0916 3.17821C40.7142 3.34704 39.5347 3.10869 38.8742 3.01931C38.5125 3.3669 38.6698 3.10869 38.198 3.29738V3.43642C38.0408 3.43642 37.8992 3.43642 37.742 3.43642V3.57546C37.742 3.57546 37.8835 3.57546 37.9621 3.57546V3.71449C37.9621 3.71449 37.8049 3.71449 37.742 3.71449V3.85353C37.742 3.85353 37.5847 3.85353 37.5218 3.85353V3.43642C37.5218 3.43642 37.3803 3.43642 37.3016 3.43642V3.29738C37.3016 3.29738 37.1601 3.29738 37.0815 3.29738C36.94 3.45628 35.9649 3.23779 35.3045 3.42649L35.0686 3.70456C34.8484 3.65491 34.6282 3.60525 34.4081 3.55559L34.1722 3.83367L33.5117 3.6847C33.5117 3.6847 33.4174 3.92305 33.0714 3.82374V3.6847C32.9298 3.6847 32.7726 3.6847 32.6311 3.6847C33.2129 3.99257 32.1436 4.26071 31.719 4.37989V4.51892C31.3887 4.41961 31.3573 4.38982 30.8226 4.36996V4.23092C30.9798 4.23092 31.1214 4.23092 31.2786 4.23092V3.95284C31.0585 3.95284 30.8383 3.95284 30.6181 3.95284V4.23092C30.4609 4.23092 30.3193 4.23092 30.1621 4.23092C29.9891 4.18126 30.0835 3.91312 29.7218 3.94291V4.08195C29.7218 4.08195 28.8568 4.08195 29.2657 4.22099H29.4859C29.4859 4.22099 29.4859 4.3203 29.4859 4.36002C29.3443 4.31037 29.1871 4.26071 29.0455 4.21106C28.904 4.41961 28.8568 4.43948 28.8097 4.76721C28.3064 4.58844 27.9605 4.41961 27.2685 4.33023C27.0955 4.73741 27.1427 4.36002 27.2685 4.74734C26.1992 4.83672 26.4822 5.10487 25.4915 4.87645V5.15452C25.3342 5.15452 25.1927 5.15452 25.0354 5.15452V5.4326C24.9568 5.4326 24.8782 5.4326 24.7996 5.4326V4.58844C24.6737 4.58844 24.5165 4.58844 24.375 4.58844V4.86652C24.2177 4.86652 24.0762 4.86652 23.9189 4.86652C23.8403 5.05521 23.7616 5.24391 23.683 5.42267H23.2427C23.2427 5.51205 23.2427 5.60143 23.2427 5.70074C23.0225 5.65109 22.8024 5.60143 22.5822 5.55177V5.2737C22.5822 5.2737 22.4407 5.2737 22.362 5.2737V5.41274C22.2048 5.41274 22.0632 5.41274 21.906 5.41274C21.7487 5.55177 21.6072 5.69081 21.4499 5.82985C21.0882 5.73054 20.7108 5.63122 20.3491 5.54184C20.0975 5.82985 19.9717 5.79012 19.8931 6.23703C18.9023 5.93909 17.7229 5.80006 17.4398 6.77332C16.6378 6.89249 16.9523 7.0216 15.883 7.04146V7.31954C15.5213 7.23015 15.2539 7.25995 14.7664 7.17057V7.03153C14.4676 7.07125 14.1688 7.12091 13.8701 7.16064V7.0216C13.7285 7.0216 13.5713 7.0216 13.4297 7.0216C13.5713 7.16064 13.7128 7.3096 13.8701 7.44864H13.6499C13.6499 7.44864 13.6499 7.34933 13.6499 7.3096C13.2882 7.3394 13.2725 7.56782 13.1938 7.58768H12.5333C12.5333 7.58768 12.5333 7.67706 12.5333 7.72672C12.0458 7.67706 12.612 7.56782 12.3132 7.43871C11.9672 7.48837 11.9515 7.56782 11.4168 7.56782V7.84589C10.9608 7.84589 10.5204 7.84589 10.0801 7.83596C10.0015 7.92534 9.92285 8.02465 9.84422 8.11404L9.62406 7.975H8.72768C8.57042 8.20342 8.49179 8.40204 8.49179 8.80922H8.27163C8.27163 8.70991 8.27163 8.62053 8.27163 8.53115H7.61114C7.86276 8.68012 7.61114 8.5808 8.05147 8.67018V8.94826C7.89421 8.94826 7.75268 8.94826 7.59542 8.94826V8.67018C7.59542 8.67018 7.45388 8.67018 7.37525 8.67018V9.0873C7.218 9.0873 7.07646 9.0873 6.9192 9.0873V8.52122C7.07646 8.52122 7.23372 8.52122 7.37525 8.52122V8.38218C7.15509 8.38218 6.93493 8.38218 6.71477 8.38218V8.52122C6.71477 8.52122 6.55751 8.52122 6.4946 8.52122C6.55751 8.70991 6.63614 8.8986 6.69904 9.0873H6.47888C6.47888 9.0873 6.47888 9.17668 6.47888 9.22633C6.25872 9.17668 6.03855 9.12702 5.81839 9.07737V8.79929C5.45669 8.83902 5.07927 8.88867 4.70185 8.9284V9.06744C4.54459 9.06744 4.40306 9.06744 4.2458 9.06744C4.32443 9.20647 4.38733 9.34551 4.46596 9.49448H3.56959C3.44378 9.20647 3.60104 9.36537 3.34942 9.20647C3.27079 9.44482 3.19216 9.67324 3.11353 9.91159H2.89337C2.81474 9.77255 2.75184 9.62358 2.67321 9.48455H2.23288C2.10708 9.86193 1.997 10.0109 1.55667 10.1797V10.3188C1.19497 10.5075 1.38369 10.0606 1.33651 10.0308H1.11635C0.880457 10.2095 0.660294 10.2294 0.440131 10.4479H0.015532C0.487309 10.9146 -0.0630975 10.9643 -0.000193916 11.153H0.219969C0.219969 11.292 0.219969 11.441 0.219969 11.58H0.440131C0.503035 11.7389 0.204243 11.8581 0.204243 11.8581C0.204243 11.9773 0.392954 12.0965 0.40868 12.4242C0.927634 12.5235 1.44659 12.6228 1.96554 12.7221C1.65103 12.9307 1.82401 12.9108 1.96554 13.1392C2.64176 13.0995 3.30225 13.0598 3.97846 13.0201C3.77402 12.7619 3.66394 12.8016 3.55386 12.454C3.80547 12.2951 3.64822 12.454 3.78975 12.1759C4.00991 12.2256 4.23007 12.2752 4.45024 12.3249V12.1858C5.17363 12.0766 4.81193 12.1263 5.34661 12.1858C5.42524 12.0468 5.50387 11.9078 5.5825 11.7687L5.36234 11.6297H6.02283C6.02283 11.6297 6.02283 11.5403 6.02283 11.4907H6.24299C6.44743 11.7489 6.08573 11.9276 6.0071 12.0567C6.54178 11.9872 6.69904 11.8978 7.12364 11.7886V11.2225C7.57969 11.1331 8.03574 11.0438 8.47607 10.9544V10.8153C8.85349 10.8153 9.21519 10.8153 9.59261 10.8253C9.74987 10.6862 9.8914 10.5472 10.0487 10.4082H10.2688C10.2688 10.5968 10.2688 10.7855 10.2688 10.9742H10.9293C11.2281 10.5968 11.3854 10.6366 11.1652 10.279C11.7471 10.0606 11.9987 10.3883 12.5019 10.0109H12.7221C12.6434 9.87187 12.5805 9.73283 12.5019 9.59379H13.3983C13.3983 9.6931 13.3983 9.79242 13.3983 9.8818H13.6184C13.6971 9.79242 13.7757 9.6931 13.8543 9.60372C14.0745 9.65338 14.2947 9.70303 14.5148 9.75269V9.61365C14.7664 9.49448 14.5463 9.63352 14.7507 9.47462H14.3104C14.3104 9.32565 14.3104 9.18661 14.3104 9.04757C14.6092 9.14688 14.5777 9.25613 14.7507 9.33558H15.191C15.5842 9.564 15.2539 9.67324 15.191 9.90166H15.8515C15.8515 9.90166 15.8515 9.81228 15.8515 9.76262H16.0717C16.0717 9.62358 16.0717 9.48455 16.0717 9.34551H16.7322C16.7322 9.39517 16.7322 9.44482 16.7322 9.49448H16.9523C16.9523 9.35544 16.9523 9.2164 16.9523 9.07737C17.2511 8.93833 17.5499 8.79929 17.8487 8.66025C17.9431 8.6106 17.8015 8.4219 18.0689 8.52122V8.66025C18.5249 8.62053 18.2733 8.66025 18.5092 8.52122H18.7294C18.6507 8.62053 18.5721 8.70991 18.4935 8.79929C18.9338 8.84895 19.3741 8.8986 19.8302 8.94826C19.9088 8.70991 19.9874 8.48149 20.0661 8.24314C20.7737 8.18355 20.7265 8.1339 21.1826 7.975V7.83596C21.56 7.88562 21.9217 7.93527 22.2991 7.98493V7.41885C22.2991 7.41885 22.1576 7.41885 22.0947 7.41885V7.27981C22.881 7.37912 23.1169 7.42878 23.1955 7.99486H23.4157C23.4157 7.90548 23.4157 7.80617 23.4157 7.71679C23.6358 7.61747 23.7931 7.95514 23.856 8.00479H24.2963C24.2963 8.00479 24.2963 7.91541 24.2963 7.86575H24.0762C24.0762 7.72672 24.0762 7.57775 24.0762 7.43871H23.856C23.856 7.43871 23.856 7.3394 23.856 7.29967C23.9975 7.34933 24.1548 7.39899 24.2963 7.44864L24.5165 7.3096V7.17057C24.7367 7.22022 24.9568 7.26988 25.177 7.31954C25.0512 7.04146 25.2084 7.20036 24.9568 7.03153V6.89249C25.177 6.94215 25.3971 6.9918 25.6173 7.04146V7.31954C25.1613 7.39899 25.4129 7.29967 25.1613 7.45857H24.9411C24.9411 7.45857 24.9411 7.54795 24.9411 7.59761C25.6802 7.59761 25.7746 7.60754 26.0576 7.32947H26.2778C26.2778 7.32947 26.2778 7.24009 26.2778 7.19043H26.0576C26.0576 7.19043 26.0576 7.09112 26.0576 7.05139C26.954 7.16064 26.8754 7.12091 27.8347 7.07125C27.9133 6.88256 27.9919 6.69387 28.0705 6.5151C28.2435 6.57469 28.5109 6.80311 28.5109 6.80311H29.8476C29.8476 6.8627 29.8476 6.91235 29.8476 6.95208C30.4923 6.85277 30.5867 6.80311 30.7439 6.39593C31.7504 6.37607 31.9234 6.21717 32.3008 6.55483C32.5524 6.39593 32.3952 6.55483 32.5367 6.27676H32.7569C32.9298 5.98875 32.521 5.93909 32.3165 5.84971V5.71067C32.5367 5.76033 32.7569 5.80999 32.977 5.85964C33.0714 6.16751 33.1028 6.25689 33.4016 6.42572C33.5903 6.58462 33.3702 6.44559 33.6218 6.56476V6.28669C34.1093 6.2271 34.2665 6.20724 34.5182 6.01854H34.7383C34.6597 5.92916 34.5968 5.82985 34.5182 5.74047C34.7383 5.79012 34.9585 5.83978 35.1787 5.88944V5.61136C35.0371 5.61136 34.8956 5.61136 34.7383 5.61136C34.7383 5.60143 34.6754 5.1148 34.9742 5.33329V5.47232C35.3674 5.32336 35.273 5.38294 35.4303 5.05521H35.6504C35.6504 5.24391 35.6504 5.4326 35.6504 5.62129H36.0908C36.2166 5.9093 36.0593 5.7504 36.3109 5.9093C36.3895 5.77026 36.4682 5.63122 36.5468 5.49219C37.1287 5.51205 37.3016 5.55177 37.6633 5.64116V5.36308C37.9621 5.41274 38.2609 5.46239 38.5597 5.51205V5.37301C38.8585 5.33329 39.1573 5.28363 39.4561 5.24391C39.3146 5.52198 39.4875 5.36308 39.2202 5.52198V5.66102C39.4404 5.66102 39.6605 5.66102 39.8807 5.66102C39.9436 5.39287 40.1009 5.39287 40.1166 5.38294C40.2581 5.12473 40.0065 5.18432 39.8964 5.09494C40.1009 4.88638 40.1009 5.00556 40.5726 4.9559V5.23397C41.0287 4.99562 41.5791 5.42267 42.1295 4.82679H42.3497C42.271 4.92611 42.1924 5.01549 42.1138 5.10487H42.3339C42.3339 5.10487 42.3339 5.20418 42.3339 5.24391C43.0573 5.40281 42.963 4.75727 43.2303 4.68776C43.9223 4.50899 43.7021 5.14459 44.3469 4.55865H44.567C44.4884 4.65796 44.4098 4.74734 44.3311 4.83672C44.7085 4.797 45.0702 4.74734 45.4477 4.70762V4.56858C45.6678 4.61824 45.888 4.66789 46.1082 4.71755C46.1082 4.71755 46.234 4.51892 46.5642 4.57851C46.5957 4.57851 46.6428 4.83672 47.0045 4.86652V4.72748C47.3033 4.68776 47.6021 4.6381 47.9009 4.59837C48.0582 4.27064 47.9638 4.34016 48.357 4.18126V4.04223C48.5771 4.14154 48.7973 4.23092 49.0174 4.33023C49.0961 4.19119 49.1747 4.05216 49.2533 3.91312C49.4735 4.01243 49.6937 4.10181 49.9138 4.20112V4.06209C50.134 4.06209 50.3699 4.06209 50.59 4.06209V3.92305C50.59 3.92305 50.7473 3.92305 50.8102 3.92305C51.0775 4.02236 50.7158 4.05216 51.0304 4.06209C51.3134 3.97271 50.9517 3.88333 51.2505 3.92305C51.2505 3.92305 51.3134 4.17133 51.6908 4.21106V4.07202C51.911 4.02236 52.1469 3.98264 52.3671 3.93298C52.2413 3.65491 52.3985 3.81381 52.1469 3.64498V3.50594C52.3671 3.50594 52.603 3.50594 52.8231 3.50594V3.64498C52.8231 3.64498 52.9646 3.64498 53.0433 3.64498V4.06209C53.1848 4.06209 53.3263 4.06209 53.4836 4.06209C53.6094 4.34016 53.4522 4.18126 53.7038 4.34016C53.8453 4.06209 53.6723 4.22099 53.9397 4.06209C53.9397 4.06209 53.9239 3.51587 53.7195 3.77408V3.91312C53.7195 3.91312 53.5622 3.91312 53.4993 3.91312C53.688 3.75422 53.4679 3.89326 53.7195 3.77408V3.63504C53.9397 3.6847 54.1598 3.73436 54.38 3.78401C54.3013 3.64498 54.2384 3.50594 54.1598 3.35697L54.836 3.21793C54.9776 3.27752 54.836 3.43642 55.2764 3.3669L55.4965 3.22786C55.6223 3.40663 55.701 3.5258 55.9368 3.65491V3.79394C56.2828 3.75422 56.2828 3.54566 56.3772 3.51587L56.5973 3.65491C56.8961 3.63504 56.9433 3.54566 57.4937 3.5258C57.305 3.26759 57.1635 3.15834 57.0691 2.82068C57.651 2.7313 57.7139 2.68164 57.9655 2.40357C58.1227 2.42343 58.5945 2.31419 58.4058 2.55254H58.1856C58.1856 2.55254 58.1856 2.64192 58.1856 2.69158H58.626C58.626 2.74123 58.626 2.79089 58.626 2.84054C59.0506 3.0491 59.082 2.91999 59.5223 2.84054V3.11862C59.6639 3.11862 59.8054 3.11862 59.9627 3.11862C59.8054 3.44635 59.8998 3.37683 59.5066 3.53573V3.67477C59.8683 3.63504 60.2457 3.58539 60.6232 3.54566C60.7647 3.33711 60.8119 3.31724 60.8591 2.98951H61.0792C61.0792 3.08883 61.0792 3.17821 61.0792 3.27752C61.6925 3.18814 61.5824 3.08883 62.1958 3.00938C62.2744 2.71144 62.4159 2.7313 62.4316 2.7313C62.353 2.59226 62.2901 2.45323 62.2115 2.30426C62.2115 2.30426 62.6046 2.30426 62.8877 2.02618H63.1079C62.9506 2.26453 62.7933 2.49295 62.6518 2.7313C62.7933 2.78096 62.9506 2.83061 63.0921 2.88027H63.3123C63.3123 2.88027 63.3123 2.79089 63.3123 2.74123H63.5325C63.5325 2.88027 63.5325 3.02924 63.5325 3.16828L65.5296 3.18814V3.0491C65.7498 3.0491 65.9857 3.0491 66.2059 3.0491C66.2845 2.95972 66.3631 2.86041 66.4417 2.77103C66.6619 2.82068 66.8821 2.87034 67.1022 2.91999V2.78096C67.1022 2.78096 67.2595 2.78096 67.3224 2.78096V2.91999C67.4325 2.91999 68.2345 3.00938 67.9829 2.78096H67.7627C67.7627 2.78096 67.7627 2.68164 67.7627 2.64192C68.1087 2.77103 68.2345 2.85048 68.4232 3.06896C69.0522 3.03917 69.241 3.01931 69.5397 2.80082H69.7599C69.7599 2.98951 69.7599 3.17821 69.7599 3.3669H70.2002C70.0744 3.08883 70.2317 3.24773 69.9801 3.08883V2.94979C69.9801 2.94979 70.1373 2.94979 70.2002 2.94979V3.08883C70.2002 3.08883 70.9865 3.13848 70.6406 2.94979C70.5934 2.85048 70.2631 2.97958 70.4204 2.81075C70.499 2.72137 70.9551 2.74123 70.8764 2.53268C70.8607 2.48302 70.845 2.47309 70.8135 2.46316C71.0023 2.54261 70.9865 2.54261 71.0809 2.82068H71.7414C71.82 2.91999 71.8829 3.01931 71.9615 3.10869H71.7414C71.7414 3.37683 71.8986 3.18814 72.1817 3.24773C72.1345 2.91999 72.1031 2.90013 71.9773 2.68164H72.1974C72.3861 2.52274 72.166 2.66178 72.4176 2.54261C72.4962 2.68164 72.5591 2.82068 72.6377 2.96965H72.4176C72.4333 3.22786 72.5434 3.0491 72.8579 3.10869V2.83061C73.0938 2.83061 73.314 2.83061 73.5341 2.83061V2.55254C73.7543 2.60219 73.9902 2.65185 74.2103 2.70151C74.289 2.61213 74.3676 2.51281 74.4462 2.42343C74.745 2.47309 75.0438 2.52274 75.3269 2.5724V2.85048C75.5313 2.99944 75.547 2.71144 75.547 2.71144H76.4434C76.4434 2.77103 76.4434 2.81075 76.4434 2.86041H75.7829C75.7829 2.86041 75.7358 3.39669 75.547 3.12855V2.98951C75.547 2.98951 75.4055 2.98951 75.3269 2.98951L75.1067 3.12855C74.9023 3.61518 75.7987 3.41656 74.8708 3.83367C75.1224 3.99257 74.8708 3.89326 75.3111 3.98264V4.26071C74.8551 4.26071 74.4148 4.26071 73.9745 4.25078V4.38982C73.8172 4.38982 73.6757 4.38982 73.5184 4.38982V4.52886C73.141 4.4792 72.7793 4.42954 72.4019 4.37989C72.6063 4.86652 72.6849 4.64803 73.0623 4.94597L72.8422 5.08501L72.1817 4.93604V5.07507C72.1817 5.07507 72.3232 5.07507 72.4019 5.07507V5.49219C72.4019 5.49219 72.5434 5.49219 72.622 5.49219V5.9093C72.5434 5.9093 72.4648 5.9093 72.3861 5.9093V5.49219C71.8043 5.50212 71.6313 5.54184 71.2853 5.62129C71.4111 5.95896 71.5055 5.92916 71.7099 6.18737C70.8764 5.98875 71.5369 6.09799 70.8135 6.18737C70.7349 6.09799 70.672 5.99868 70.5934 5.9093C70.5934 5.9093 69.9014 6.0682 69.4768 6.0384V5.89937C69.4768 5.89937 69.3353 5.89937 69.2567 5.89937V6.0384C69.0994 6.0384 68.9579 6.0384 68.8164 6.0384C69.0365 6.2271 69.2567 6.41579 69.4768 6.60449H69.2567C69.2252 6.68394 69.3982 7.0216 69.0208 6.88256V6.74352C69.0208 6.74352 68.8793 6.74352 68.8006 6.74352V6.88256C68.8006 6.88256 68.6434 6.88256 68.5805 6.88256C68.9264 6.56476 68.6276 6.49524 68.5962 6.0384H68.376C68.1559 6.46545 68.1559 6.16751 68.376 6.59455C68.1559 6.64421 67.9357 6.68394 67.6998 6.73359L67.4797 6.59455L67.2595 6.73359V6.87263C67.2595 6.87263 67.401 6.87263 67.4797 6.87263C67.4325 7.21029 67.3538 7.1507 67.0236 7.28974V7.42878C66.8034 7.32947 66.5833 7.24009 66.3631 7.14077C66.08 7.23015 66.4417 7.21029 66.143 7.27981V7.41885C65.9228 7.36919 65.7026 7.31954 65.4825 7.26988C65.5611 7.40892 65.624 7.54795 65.7026 7.69692H65.4825C65.4825 7.69692 65.4825 7.7863 65.4825 7.83596H65.2623C65.2623 7.83596 65.2623 7.73665 65.2623 7.69692C65.0264 7.58768 64.9006 7.6274 64.822 7.40892H65.0421C65.0421 7.40892 65.0421 7.31954 65.0421 7.26988C64.7433 7.3096 64.4446 7.35926 64.1458 7.39899V8.1041C64.0514 8.1041 63.9885 8.1041 63.9099 8.1041V7.68699C63.6583 7.80617 63.8784 7.66713 63.6897 7.82603C63.3123 7.98493 63.3752 7.90548 63.2337 8.24314C62.6203 8.20342 62.2587 8.09417 61.6768 8.37225C61.5982 8.46163 61.5195 8.56094 61.4409 8.65032H60.7804C60.6232 8.77943 60.4816 8.91847 60.3244 9.0575C60.1042 9.00785 59.884 8.95819 59.6639 8.90854C59.3965 9.0873 59.8211 9.65338 58.9877 9.46468V9.32565C58.5159 9.68317 59.3494 9.62358 58.3115 10.0208V10.1599C58.5316 10.1599 58.7518 10.1599 58.9719 10.1599V10.4379C58.8933 10.4379 58.8147 10.4379 58.736 10.4379C58.736 10.5174 58.9248 10.6962 58.9405 11.004H59.1607C59.1607 11.004 59.1607 11.1033 59.1607 11.1431C59.5223 11.302 60.1199 11.1828 60.2772 11.153V11.014C60.2772 11.014 60.4345 11.014 60.4974 11.014V11.153C61.0163 11.1927 61.0792 11.0934 61.3937 11.0239C61.4724 11.1629 61.5353 11.302 61.6139 11.4509H62.0542C62.0542 11.4509 62.6361 11.004 62.9506 11.0438V11.1828C63.0607 11.1828 63.8627 11.2722 63.6111 11.0438H63.3909C63.3909 11.0438 63.3909 10.9444 63.3909 10.9047H63.8312C63.8312 10.8153 63.8312 10.726 63.8312 10.6266C64.0514 10.577 64.2716 10.5373 64.5075 10.4876V10.3486C64.6647 10.3982 64.8063 10.4479 64.9478 10.4975V10.2195C65.451 9.89173 65.8756 10.0308 66.5204 10.0904C66.599 9.95132 66.6776 9.81228 66.7563 9.67324C67.3224 9.67324 67.3539 9.55407 67.6526 9.54413C67.7313 9.64345 67.7942 9.73283 67.8728 9.83214C68.1716 9.90166 67.9357 9.77255 68.093 9.6931C68.3288 9.6931 68.5333 9.99104 68.9736 9.84207V9.70304C69.5869 9.60372 69.4768 9.67324 69.6498 9.28592C69.9486 9.33558 70.2474 9.38523 70.5305 9.43489C70.6091 9.01778 70.7035 8.59073 70.7821 8.17362H71.2224C71.2224 8.27293 71.2224 8.36232 71.2224 8.46163H70.7821C71.0337 8.69998 70.9079 8.65032 71.4426 8.7397C71.5841 8.46163 71.4111 8.62053 71.6785 8.46163C71.8672 8.30273 71.647 8.44177 71.8986 8.32259V8.60067C72.4176 8.65032 72.9365 8.69998 73.4398 8.75957V8.62053C73.4398 8.62053 74.3047 8.6106 73.8958 8.48149H73.6757C73.6757 8.48149 73.6757 8.38218 73.6757 8.34245C73.8958 8.2928 74.116 8.25307 74.3519 8.20342V7.92534C74.572 7.975 74.8079 8.02465 75.0281 8.07431V7.93527C75.0281 7.93527 75.1853 7.93527 75.2482 7.93527V8.07431C75.4684 8.07431 75.6886 8.07431 75.9087 8.07431C75.8301 7.98493 75.7672 7.88562 75.6886 7.79624H75.9087C75.9087 7.70685 75.9087 7.60754 75.9087 7.51816C76.1289 7.59761 76.3019 7.7863 76.3491 7.80617C76.8995 8.00479 77.0096 7.76644 77.4499 8.09417H78.1104C78.1104 8.09417 78.1104 8.00479 78.1104 7.95514C78.2362 7.84589 78.4406 8.00479 78.3305 7.8161H78.1104C78.0317 7.71679 77.9688 7.6274 77.8902 7.52809C78.1104 7.47844 78.3305 7.43871 78.5664 7.38905V7.52809C78.5664 7.52809 78.7079 7.52809 78.7866 7.52809V7.38905C79.0854 7.38905 79.3842 7.38905 79.683 7.38905V7.52809C79.683 7.52809 79.8245 7.52809 79.9031 7.52809C80.0447 7.47844 79.9346 7.3096 80.3592 7.38905V7.52809C80.7209 7.57775 81.0983 7.6274 81.46 7.67706C81.3342 7.39899 81.4914 7.55789 81.2398 7.38905V7.25002C81.0983 7.29967 80.941 7.3394 80.7995 7.38905V7.11098C81.6172 7.07125 82.435 7.03153 83.2527 6.9918V6.57469C83.5673 6.53497 83.8503 6.48531 84.1491 6.44559V6.02847C84.4007 6.14765 84.1963 6.00861 84.385 6.16751C84.904 6.39593 85.0298 6.75345 85.0298 7.29967L85.706 7.16064C85.8632 6.88256 86.0205 6.60449 86.1777 6.32641C86.6967 6.52504 87.0741 6.73359 87.7189 6.90242V6.62435C87.8761 6.62435 88.0177 6.62435 88.1749 6.62435C88.3479 6.24696 88.2378 6.30655 88.8512 6.20724C88.9141 5.87951 88.9455 5.85964 89.087 5.65109C89.3387 5.53191 89.1185 5.67095 89.3072 5.51205H89.5274C89.7475 5.78019 89.3701 6.09799 89.2915 6.21717H90.1879C90.2665 6.08806 90.3451 5.94902 90.4237 5.80999H90.2036C90.2036 5.80999 90.2036 5.71067 90.2036 5.67095L90.6439 5.81992C90.7225 5.68088 90.8012 5.54184 90.8798 5.40281C91.1157 5.29356 91.2729 5.68088 91.3201 5.69081H91.9806C92.0592 5.51205 92.1379 5.32336 92.2165 5.13466H92.6568C92.5782 5.2737 92.4996 5.42267 92.4209 5.56171C93.0185 5.71067 93.6004 5.84971 94.198 5.99868H94.4181C94.6226 5.7504 94.2766 5.56171 94.2137 5.4326H94.8742C94.8742 5.48226 94.8742 5.53191 94.8742 5.58157C94.8742 5.58157 95.6605 5.63122 95.3145 5.44253H95.0943C95.2673 5.25384 95.2673 5.28363 95.5504 5.16446V4.88638C95.629 4.88638 95.7076 4.88638 95.7863 4.88638C95.8492 5.45246 96.0536 5.58157 95.3145 5.86957V6.00861C95.5347 5.95896 95.7548 5.91923 95.975 5.86957L96.1952 6.00861C96.4153 5.78019 96.6512 5.54184 96.8714 5.31342C97.2802 5.01549 96.8714 4.98569 96.6669 4.46927C96.4468 4.51892 96.2266 4.55865 95.9907 4.60831V4.33023C97.1073 4.37989 97.0915 4.73741 97.5319 5.18432C97.6734 5.13466 97.8306 5.09494 97.9722 5.04528L97.7363 5.32336C98.4754 5.42267 99.1988 5.56171 99.7492 5.20418C100.001 5.08501 99.7807 5.22404 99.9694 5.06514H99.529C99.4504 4.91617 99.3875 4.77714 99.3089 4.6381C99.3403 4.55865 99.702 4.66789 99.529 4.49906H99.3089C99.3089 4.49906 99.3089 4.39975 99.3089 4.36002C99.7178 4.53879 99.6863 4.49906 99.7335 4.92611C99.9851 4.76721 99.8278 4.92611 99.9694 4.64803H100.19C100.19 4.78707 100.19 4.93604 100.19 5.07507C100.834 4.92611 101.133 5.01549 101.542 4.66789C101.589 4.66789 102.297 4.61824 101.982 4.81686C101.982 4.81686 101.542 4.81686 101.762 4.9559H102.202C102.124 5.05521 102.045 5.14459 101.967 5.24391H102.407C102.486 5.06514 102.564 4.87645 102.643 4.68776C102.989 4.77714 103.067 4.74734 103.523 4.83672V4.97576C103.744 4.92611 103.964 4.88638 104.184 4.83672V4.69769C104.184 4.69769 104.341 4.69769 104.404 4.69769V4.83672C104.844 4.74734 104.593 4.90624 104.844 4.69769H104.624C104.624 4.69769 104.624 4.59837 104.624 4.55865H104.844C104.766 4.46927 104.703 4.36996 104.624 4.28057C105.505 4.53879 105.363 4.54872 106.401 4.43947V4.71755C107.219 4.67782 108.037 4.6381 108.839 4.59837L109.075 4.18126L109.295 4.3203H110.632C110.553 4.42954 110.474 4.51892 110.396 4.60831C111.182 4.55865 111.276 4.41961 111.953 4.34016C112.094 4.0025 112.188 4.03229 112.409 3.78401H112.629C112.55 3.92305 112.471 4.06209 112.393 4.20112C113.053 3.97271 113.446 3.69463 113.525 3.08883H113.745C113.714 3.56553 113.745 3.60525 113.289 3.79394V3.93298C113.509 3.93298 113.73 3.93298 113.95 3.93298C114.076 4.21106 113.918 4.05216 114.17 4.21106L114.39 4.07202C114.311 3.93298 114.248 3.79394 114.17 3.64498C114.484 3.72443 114.532 3.81381 115.051 3.79394L115.271 3.65491V3.93298C115.412 3.88333 115.569 3.8436 115.711 3.79394C116.246 3.79394 116.261 3.86346 116.592 3.94291V3.66484C117.126 3.57546 117.016 3.62511 117.268 3.38676H117.488C117.331 3.64498 117.252 3.93298 117.236 4.36996H117.897C117.976 3.92305 118.227 4.07202 117.692 3.81381V3.53573C117.771 3.53573 117.85 3.53573 117.928 3.53573L118.149 3.96278C118.432 4.06209 118.29 3.88333 118.369 3.82374C118.636 3.81381 118.809 3.97271 118.809 3.97271C119.218 3.99257 119.171 3.76415 119.265 3.55559C119.737 3.73436 120.743 4.30044 121.482 3.85353C122.143 3.70456 121.734 3.87339 121.718 3.43642H121.938C121.938 3.53573 121.938 3.62511 121.938 3.72443C122.159 3.67477 122.379 3.63504 122.615 3.58539L122.835 3.72443C122.756 3.58539 122.693 3.44635 122.615 3.29738C123.244 3.12855 123.605 2.92993 124.407 2.8902C124.266 3.16828 124.439 3.00938 124.172 3.16828C124.313 3.55559 124.47 3.48608 124.596 3.87339C124.816 3.82374 125.036 3.78401 125.272 3.73436V3.87339C125.272 3.87339 125.414 3.87339 125.493 3.87339V3.73436C125.87 3.59532 125.854 3.51587 126.389 3.46621C126.672 3.55559 126.295 3.61518 126.609 3.60525V3.32718C126.829 3.42649 127.049 3.51587 127.27 3.61518V3.33711C127.348 3.33711 127.427 3.33711 127.505 3.33711V3.75422C127.726 3.75422 127.946 3.75422 128.166 3.75422V3.61518C128.166 3.61518 128.323 3.61518 128.386 3.61518V3.47614C128.386 3.47614 128.245 3.47614 128.166 3.47614V3.33711C128.418 3.45628 128.197 3.31724 128.386 3.47614H129.047C128.968 3.33711 128.905 3.19807 128.826 3.05903H129.047C129.047 3.05903 129.047 3.15834 129.047 3.19807H129.267C129.267 3.33711 129.267 3.48608 129.267 3.62511H129.487C129.487 3.62511 129.487 3.72443 129.487 3.76415H130.147C130.069 3.62511 130.006 3.48608 129.927 3.34704C130.603 3.30731 131.264 3.26759 131.94 3.22786C132.066 3.56553 132.16 3.53573 132.365 3.79394C132.805 3.88333 132.553 3.77408 132.805 3.94291H133.025C132.884 3.56553 132.726 3.62511 132.601 3.23779C133.355 3.25766 133.418 3.23779 133.701 3.5258H133.922C133.922 3.43642 133.922 3.33711 133.922 3.24773C134.063 3.29738 134.22 3.34704 134.362 3.39669V2.97958C134.441 2.97958 134.519 2.97958 134.598 2.97958V3.25766C134.739 3.25766 134.881 3.25766 135.038 3.25766V3.39669C135.038 3.39669 135.18 3.39669 135.258 3.39669V3.25766C135.478 3.25766 135.714 3.25766 135.935 3.25766V3.39669C136.233 3.35697 136.532 3.30731 136.831 3.26759V3.54566C137.79 3.65491 137.649 3.70456 138.592 3.98264V3.8436C138.592 3.8436 138.749 3.8436 138.812 3.8436V3.42649C138.891 3.42649 138.97 3.42649 139.048 3.42649C139.237 3.26759 139.017 3.40663 139.268 3.28745V3.56553C139.41 3.56553 139.551 3.56553 139.709 3.56553C139.835 3.8436 139.677 3.6847 139.929 3.85353V3.99257C140.338 4.12168 140.259 3.65491 140.385 3.57546H140.605C140.731 3.86346 140.558 3.69463 140.825 3.86346V4.0025C140.967 3.95284 141.124 3.91312 141.266 3.86346C141.124 4.14154 141.297 3.98264 141.03 4.14154V4.28057C141.25 4.28057 141.47 4.28057 141.69 4.28057V4.41961C141.69 4.41961 141.832 4.41961 141.91 4.41961V4.55865C141.753 4.55865 141.612 4.55865 141.47 4.55865C141.612 4.89631 141.533 4.82679 141.91 4.98569V5.12473C141.69 5.07507 141.47 5.02542 141.25 4.97576C141.03 5.16446 140.794 5.34322 140.574 5.53191H140.133C140.133 5.53191 140.133 5.62129 140.133 5.67095C139.52 5.84971 139.473 5.63122 139.017 5.93909H138.797C138.797 6.07813 138.797 6.21717 138.797 6.3562H137.46C137.46 6.43566 137.46 6.53497 137.46 6.62435C136.894 6.64421 136.674 6.62435 136.343 6.75346V6.89249C136.186 6.89249 136.045 6.89249 135.887 6.89249V7.03153C135.73 6.98187 135.589 6.93222 135.447 6.88256V7.0216C135.227 7.0216 134.991 7.0216 134.771 7.0216V7.29967C134.614 7.34933 134.472 7.38905 134.315 7.43871C134.236 7.57775 134.157 7.71679 134.079 7.85582H133.418C133.418 7.85582 133.418 7.9452 133.418 7.99486H133.198C133.198 8.1339 133.198 8.27294 133.198 8.41197H132.538C132.538 8.59074 132.538 8.77943 132.538 8.96812C132.239 8.91847 131.94 8.86881 131.657 8.81915C131.657 9.35544 131.594 9.4051 132.302 9.52427V9.80235C132.585 9.80235 132.884 9.80235 133.182 9.80235V10.2195C133.182 10.2195 133.324 10.2195 133.403 10.2195V10.0804C134.079 10.2592 134.079 10.3386 134.519 9.95132H134.739C134.739 10.0904 134.739 10.2393 134.739 10.3784C135.62 10.2393 135.73 9.90166 136.752 9.83214V9.41503C136.831 9.41503 136.91 9.41503 136.988 9.41503V9.6931C137.208 9.6931 137.428 9.6931 137.649 9.6931V9.27599C137.885 9.22633 138.105 9.18661 138.325 9.13695V9.41503C138.545 9.36537 138.765 9.32565 138.985 9.27599V9.13695C139.143 9.13695 139.284 9.13695 139.426 9.13695V8.99792C139.724 8.9284 139.489 9.0575 139.646 9.13695C139.866 9.0873 140.086 9.04757 140.322 8.99792V8.71984C141.156 8.35238 141.973 7.98493 142.807 7.61747V7.47844C143.074 7.37912 142.964 7.57775 143.027 7.61747C143.168 7.66713 143.326 7.71679 143.467 7.76644V7.48837C143.546 7.48837 143.624 7.48837 143.703 7.48837V7.90548L143.923 7.76644C144.143 7.8161 144.364 7.86575 144.584 7.91541C144.93 7.74658 144.348 7.64727 145.26 7.4983C145.26 7.4983 145.276 6.96201 145.496 7.22022V7.35926C145.622 7.3394 146.156 7.45857 145.936 7.22022H145.716C145.716 7.22022 145.716 7.12091 145.716 7.08119H145.936C145.936 7.08119 145.936 6.9918 145.936 6.94215H146.156C146.156 7.08119 146.156 7.23015 146.156 7.36919C147.556 7.34933 148.043 7.03153 149.286 6.97194V6.69387C149.522 6.64421 149.742 6.60449 149.962 6.55483V6.8329C150.104 6.8329 150.245 6.8329 150.402 6.8329V6.41579C150.481 6.41579 150.56 6.41579 150.638 6.41579C150.748 6.63428 150.843 6.64421 150.843 6.98187L150.622 7.12091H150.843C151.031 7.27981 150.811 7.14077 151.063 7.26988V6.9918C152.447 6.76339 151.346 6.45552 152.856 6.8627V6.58462C152.714 6.58462 152.573 6.58462 152.415 6.58462V6.44559C153.154 6.46545 153.422 6.48531 153.752 6.74352H154.868C154.868 6.74352 154.868 6.66407 154.868 6.61442H155.089C155.01 6.52504 154.947 6.42572 154.868 6.33634L155.309 6.48531V6.34627C155.309 6.34627 155.466 6.34627 155.529 6.34627C155.529 6.34627 155.623 6.56476 155.969 6.49524C156.048 6.40586 156.127 6.30655 156.205 6.21717L156.646 6.36614C156.724 6.27675 156.803 6.17744 156.881 6.08806C157.102 6.13772 157.322 6.18737 157.542 6.23703V6.09799C157.841 6.09799 158.139 6.09799 158.438 6.09799C158.187 6.25689 158.438 6.15758 157.982 6.23703V6.37607C158.281 6.37607 158.58 6.37607 158.863 6.37607V5.80999C158.957 5.80999 159.02 5.80999 159.099 5.80999C159.366 6.02847 159.099 5.78019 159.539 5.80999V6.08806C159.759 6.03841 159.979 5.99868 160.2 5.94902V6.2271C160.561 6.2271 160.939 6.2271 161.3 6.23703C161.096 6.01854 160.876 5.99868 160.64 5.80999H161.08C161.08 5.72061 161.08 5.63122 161.08 5.53191C161.253 5.37301 161.3 5.67095 161.3 5.67095C161.395 5.84971 161.521 5.97882 161.741 6.09799V5.95896C161.741 5.95896 161.898 5.95896 161.961 5.95896C162.275 6.19731 161.788 6.04834 162.181 6.23703C162.26 6.14765 162.338 6.04834 162.417 5.95896H162.197C162.197 5.95896 162.197 5.85964 162.197 5.81992H162.417C162.417 5.73054 162.417 5.63122 162.417 5.54184C162.716 5.5915 163.015 5.64116 163.298 5.69081V5.12473C163.565 5.24391 163.345 5.10487 163.533 5.26377H163.974C163.974 5.31342 163.974 5.36308 163.974 5.41274C163.738 5.41274 163.612 5.53191 163.738 5.69081H163.958C163.958 5.69081 163.958 5.79012 163.958 5.82985H162.842C162.842 5.82985 162.842 5.9093 162.842 5.95896H163.738C163.659 6.05827 163.581 6.15758 163.502 6.24696C163.801 6.20724 164.1 6.15758 164.398 6.11786V5.83978C164.634 5.79012 164.854 5.7504 165.075 5.70074V5.83978C165.515 5.88944 165.955 5.93909 166.396 5.98875C166.348 5.66102 166.317 5.64116 166.191 5.42267C166.49 5.35315 166.128 5.35315 166.411 5.28363C166.789 5.18432 166.6 5.58157 167.072 5.28363V5.00556C167.229 5.05521 167.371 5.10487 167.528 5.15452C167.606 5.06514 167.685 4.96583 167.764 4.87645H167.984C167.984 4.87645 168.125 4.87645 168.204 4.87645V4.73741C168.204 4.73741 168.361 4.73741 168.424 4.73741C168.157 5.04528 167.874 5.15452 167.732 5.57164H167.292C167.481 5.73054 167.26 5.5915 167.512 5.71067V5.84971C167.858 5.95896 167.905 5.57164 167.968 5.4326H168.188C168.188 5.57164 168.188 5.72061 168.188 5.85964H168.408C168.408 5.85964 168.251 5.40281 168.644 5.58157V5.72061C168.644 5.72061 168.786 5.72061 168.865 5.72061V5.58157C168.865 5.58157 169.022 5.58157 169.085 5.58157V5.72061C169.085 5.72061 169.226 5.72061 169.305 5.72061C169.478 5.67095 169.305 5.53191 169.981 5.44253C170.06 5.30349 170.138 5.16446 170.217 5.02542C170.579 5.18432 170.217 5.02542 170.217 5.30349H170.657C170.657 5.40281 170.657 5.49219 170.657 5.5915C171.176 5.41274 171.711 5.22404 172.23 5.04528C172.544 5.40281 173.048 5.52198 173.771 5.62129C173.708 5.4326 173.63 5.24391 173.567 5.05521C174.007 4.97576 173.755 5.07507 174.023 4.91617H174.243C174.007 5.21411 174.086 5.04528 174.243 5.34322C174.62 5.39287 174.982 5.44253 175.359 5.49219V5.63122C175.501 5.63122 175.658 5.63122 175.8 5.63122C175.721 5.49219 175.658 5.35315 175.58 5.20418H175.139L175.296 5.13466ZM70.7506 2.23474C70.7506 2.23474 70.8607 2.28439 70.9079 2.30426C70.845 2.28439 70.7821 2.38371 70.7506 2.23474Z" fill="#FFA4BD"/>
<path fill-rule="evenodd" clip-rule="evenodd" d="M262.119 3.94272V3.2376C261.836 3.27733 261.537 3.32699 261.239 3.36671V3.50575C261.019 3.45609 260.798 3.40644 260.578 3.35678C260.248 3.38657 259.886 3.7441 259.462 3.62492V3.48589C259.352 3.37664 259.131 3.52561 259.242 3.34685H259.462C259.54 3.25747 259.619 3.15815 259.698 3.06877C259.021 2.93967 257.732 3.18795 257.04 2.48283C256.914 2.48283 256.128 2.39345 256.364 2.62187H256.584C256.584 2.62187 256.584 2.72118 256.584 2.7609H255.923C255.923 2.85029 255.923 2.93967 255.923 3.03898C255.798 3.01912 255.263 3.12836 255.483 2.89001H255.703C255.703 2.89001 255.703 2.80063 255.703 2.75097H255.483C255.231 2.51262 255.357 2.55235 254.823 2.46297V2.32393C254.524 2.40338 254.131 2.58214 253.926 2.74104H253.706C253.706 2.55235 253.706 2.36365 253.706 2.17496H253.266C253.266 2.314 253.266 2.45304 253.266 2.59207C252.888 2.54242 252.527 2.49276 252.149 2.4431C252.118 2.35372 252.306 2.03592 251.929 2.1551V2.29414C251.929 2.29414 251.772 2.29414 251.709 2.29414L251.489 2.00613L251.268 2.14517H250.608C250.608 2.14517 250.608 2.23455 250.608 2.2842C250.309 2.23455 250.01 2.18489 249.727 2.13524L249.491 2.41331H249.271C249.649 2.70132 250.262 2.80063 250.592 3.12836C250.01 2.93967 249.413 2.74104 248.831 2.55235V1.98627C248.454 1.9962 248.045 2.12531 247.95 2.11537L247.73 1.97634C247.557 2.17496 247.321 2.39345 247.054 2.53249V2.25441C246.771 2.25441 246.472 2.25441 246.173 2.25441C246.047 1.97634 246.205 2.13524 245.953 1.96641V1.82737C245.953 1.82737 245.812 1.82737 245.733 1.82737C245.529 2.07565 245.874 2.26434 245.937 2.39345C245.717 2.34379 245.497 2.29414 245.277 2.24448V2.38352C244.632 2.36366 244.318 2.41331 244.16 2.09551H244.381C244.381 2.09551 244.381 2.00613 244.381 1.95647C243.343 2.08558 242.305 2.21469 241.251 2.35372V2.21469C241.251 2.21469 241.11 2.21469 241.031 2.21469V2.6318C240.874 2.6318 240.732 2.6318 240.575 2.6318C240.418 2.21469 240.229 2.2842 240.15 1.78764C240.15 1.78764 239.348 1.73799 239.694 1.92668C239.741 2.02599 240.072 1.89689 239.914 2.06572C239.836 2.1551 239.38 2.13524 239.458 2.34379C239.537 2.53249 239.647 2.2842 239.678 2.48283C239.238 2.56228 239.49 2.46297 239.222 2.62187H239.002C239.081 2.52255 239.16 2.43317 239.238 2.34379C238.499 2.42324 238.216 2.51262 237.901 2.33386C237.776 2.33386 236.989 2.24448 237.225 2.4729H237.445C237.445 2.4729 237.445 2.57221 237.445 2.61194C237.147 2.59207 236.565 2.46297 236.565 2.46297C236.549 2.46297 236.47 2.66159 236.124 2.602V2.46297C235.826 2.46297 235.527 2.46297 235.244 2.46297V2.32393C234.552 2.32393 233.357 2.74104 233.011 3.00919H232.791C232.869 2.90987 232.948 2.82049 233.026 2.73111H232.806C232.555 2.45304 232.507 2.39345 231.926 2.30407V2.58214C231.627 2.58214 231.328 2.58214 231.029 2.58214V2.72118C231.249 2.72118 231.47 2.72118 231.69 2.72118V2.86022C231.532 2.86022 231.391 2.86022 231.249 2.86022V3.27733C230.998 3.15815 231.202 3.29719 231.013 3.13829C230.4 2.97939 230.746 2.72118 231.029 2.29414L230.369 2.14517V2.2842C230.211 2.2842 230.07 2.2842 229.928 2.2842V2.56228C229.63 2.56228 229.331 2.56228 229.032 2.56228V2.84035C228.655 2.7907 228.293 2.74104 227.915 2.69139V2.83042C227.538 2.87015 227.161 2.9198 226.799 2.95953V2.68145C226.359 2.7609 226.61 2.66159 226.359 2.82049C225.604 2.83042 225.541 2.81056 225.242 3.08864H225.022C225.179 3.29719 225.211 3.31705 225.226 3.65472C225.006 3.60506 224.786 3.5554 224.566 3.50575V3.78382C224.409 3.78382 224.267 3.78382 224.11 3.78382V3.50575C224.566 3.4263 224.314 3.52561 224.566 3.36671H225.006C225.006 3.36671 225.006 3.27733 225.006 3.22767H224.11C224.11 3.16809 224.11 3.12836 224.11 3.0787C223.811 3.2376 223.748 3.32699 223.654 3.63485C223.119 3.54547 223.166 3.48589 222.773 3.34685V3.20781C222.427 3.00919 222.584 3.46602 222.553 3.48589H222.333C222.254 3.34685 222.191 3.19788 222.113 3.05884C222.113 3.05884 222.978 3.04891 222.553 2.9198H222.333C222.333 2.9198 222.333 2.82049 222.333 2.78077C222.584 2.66159 222.364 2.80063 222.553 2.64173C221.72 2.77084 221.94 2.92974 221.421 3.19788V2.9198C221.138 2.9198 220.839 2.9198 220.54 2.9198V3.33692C220.461 3.33692 220.383 3.33692 220.304 3.33692V3.19788C220.084 3.19788 219.864 3.19788 219.644 3.19788V3.05884C219.282 3.05884 218.905 3.05884 218.527 3.04891V3.18795C218.527 3.18795 218.669 3.18795 218.747 3.18795V3.32699C218.747 3.32699 218.59 3.32699 218.527 3.32699V3.46602C218.26 3.53554 217.584 3.19788 216.97 3.30712V3.44616C216.813 3.3965 216.671 3.34685 216.53 3.29719C216.31 3.41637 216.373 3.57527 216.074 3.7143C215.948 3.43623 216.105 3.59513 215.854 3.4263V3.28726C215.429 3.3965 215.303 3.67458 214.517 3.5554C214.203 3.51568 214.611 3.36671 214.297 3.41637L214.061 3.69444C213.715 3.67458 213.448 3.46602 212.96 3.40644V3.68451C212.111 3.70437 211.372 3.80369 210.727 3.94272V3.66465C210.318 3.68451 209.186 3.93279 209.17 3.93279L208.95 3.79375V4.07183C208.494 4.07183 208.054 4.07183 207.613 4.0619L207.834 4.3499H207.393C207.157 3.93279 207.425 4.191 206.733 4.20094V4.47901C206.513 4.42935 206.277 4.3797 206.056 4.33004C205.915 4.5386 205.868 4.55846 205.821 4.88619H205.6C205.6 4.74715 205.6 4.59818 205.6 4.45915H205.38C205.38 4.45915 205.38 4.35983 205.38 4.32011C204.861 4.3499 204.83 4.36977 204.484 4.44922C204.688 4.70743 204.798 4.6677 204.909 5.0153C204.358 4.72729 204.83 4.6677 203.808 4.58825V4.31018C202.864 4.33004 202.896 4.39956 202.471 4.71736H202.251C202.251 4.8564 202.251 4.99543 202.251 5.13447H202.031C202.031 5.13447 202.031 5.22385 202.031 5.27351H201.811C201.889 5.1742 201.968 5.08482 202.046 4.99543L201.826 4.8564C201.606 4.90605 201.386 4.94578 201.15 4.99543C200.678 4.6677 201.559 4.62798 200.49 4.42935C199.876 4.86633 199.074 4.76702 198.901 5.54165H198.681C198.54 5.25365 198.398 4.97557 198.256 4.6975C197.549 4.73722 197.407 4.83653 196.92 4.96564V4.68757C196.071 4.77695 196.212 4.77695 195.363 4.67763C195.331 4.59819 195.52 4.26052 195.143 4.38963V4.52867C195.143 4.52867 194.985 4.52867 194.923 4.52867V4.38963C194.687 4.28039 194.561 4.32011 194.482 4.10162H194.702C194.702 4.10162 194.702 4.01224 194.702 3.96259C194.262 3.91293 193.822 3.86327 193.366 3.81362V3.95265C193.035 4.0619 192.988 4.04204 192.469 4.08176V4.35983C192.391 4.35983 192.312 4.35983 192.233 4.35983V3.94272C191.541 3.89307 191.023 3.82355 190.472 3.64479V3.50575C190.331 3.50575 190.173 3.50575 190.032 3.50575V3.36671C190.032 3.36671 189.89 3.36671 189.812 3.36671V3.50575C189.434 3.50575 189.073 3.50575 188.695 3.49582V3.63485C188.475 3.5852 188.255 3.53554 188.035 3.48589C187.956 3.57527 187.877 3.67458 187.799 3.76396C187.374 3.85334 187.138 3.61499 187.138 3.61499C186.981 3.66465 186.839 3.70437 186.682 3.75403V3.47595C186.022 3.4263 185.361 3.36671 184.685 3.31705V3.59513C184.528 3.59513 184.386 3.59513 184.229 3.59513V3.17802C183.82 3.34685 184.339 3.22767 184.009 3.45609C183.521 3.31705 183.773 3.38657 183.112 3.45609V3.73417C182.42 3.5554 181.618 3.43623 180.659 3.4263C180.533 3.14822 180.691 3.30712 180.439 3.13829V2.86022C180.219 2.90987 179.999 2.9496 179.779 2.99925C179.857 3.44616 179.951 3.65472 179.307 3.98245V4.12149C179.307 4.12149 179.149 4.12149 179.087 4.12149C179.244 3.93279 179.385 3.75403 179.543 3.56534C179.401 3.56534 178.898 3.63485 179.102 3.41637H179.543C179.543 3.41637 179.543 3.32699 179.543 3.27733H178.882C178.882 3.22767 178.882 3.17802 178.882 3.12836H178.662C178.174 3.70437 178.615 3.43623 177.545 3.3965C177.372 3.80369 177.42 3.4263 177.545 3.81362H176.885C176.759 3.52561 176.916 3.68451 176.665 3.52561C176.665 3.52561 176.649 2.97939 176.445 3.2376V3.37664C176.445 3.37664 176.287 3.37664 176.224 3.37664L176.46 3.09857C176.083 2.99925 175.768 2.9496 175.124 2.9496V3.22767C175.265 3.22767 175.407 3.22767 175.564 3.22767V3.36671C175.344 3.36671 175.108 3.36671 174.888 3.36671C175.407 3.91293 175.36 3.51568 175.533 4.2208H176.193C176.067 4.42935 175.878 4.56839 175.957 4.92592H176.177C176.177 4.92592 176.177 5.02523 176.177 5.06495L175.957 5.20399C176.476 5.3033 176.366 5.24372 176.618 5.492C177.058 5.40262 177.514 5.31323 177.954 5.22385V5.36289C178.174 5.36289 178.395 5.36289 178.615 5.36289C178.442 5.18413 178.473 5.19406 178.174 5.07488V4.79681C178.709 4.95571 179.071 5.1444 179.731 5.23378V5.09475C179.889 5.09475 180.03 5.09475 180.187 5.09475V4.95571C179.889 4.95571 179.59 4.95571 179.307 4.95571V4.81667C179.951 4.83653 180.266 4.78688 180.423 5.10468H180.203C180.203 5.10468 180.203 5.19406 180.203 5.24372C180.706 5.40262 180.927 5.58138 181.524 5.68069V5.81973C182.216 5.6211 183.348 5.67076 183.757 5.27351H183.977C183.899 5.41255 183.82 5.55158 183.741 5.69062C184.26 5.73035 184.292 5.75021 184.622 5.83959V5.70055C184.622 5.70055 184.779 5.70055 184.842 5.70055V5.56152C184.622 5.56152 184.402 5.56152 184.182 5.56152V5.42248C185.11 5.42248 185.361 5.34303 185.739 5.72042C185.487 5.60124 185.707 5.74028 185.518 5.58138H185.078C185.283 5.78993 185.503 5.81973 185.739 6.00842C186.493 5.95877 186.462 6.00842 186.635 5.59131H187.075C187.075 5.74028 187.075 5.87932 187.075 6.01835H187.295C187.453 5.82966 187.594 5.6509 187.752 5.4622H188.648C188.648 5.4622 188.648 5.37282 188.648 5.3331C188.931 5.48207 188.978 5.6211 189.308 5.76014V5.6211C189.308 5.6211 189.466 5.6211 189.529 5.6211C189.749 5.82966 189.45 6.03822 189.733 6.18718C189.875 6.13753 190.032 6.0978 190.173 6.04815C190.252 6.13753 190.315 6.23684 190.393 6.32622H191.054C191.054 6.32622 191.243 6.53478 191.494 6.61423C191.636 6.43547 191.714 6.31629 191.95 6.19712V6.47519C192.092 6.61423 192.249 6.42553 192.171 6.61423H191.95C191.95 6.75327 191.95 6.8923 191.95 7.03134H191.73C191.793 7.35907 191.856 7.6868 191.935 8.01453H192.595C192.737 7.73646 192.564 7.89536 192.831 7.74639C192.91 7.88543 192.973 8.02446 193.051 8.17343H192.391C192.391 8.17343 192.391 8.26281 192.391 8.31247H191.95C191.95 8.31247 191.95 8.40185 191.95 8.45151H192.611C192.611 8.50116 192.611 8.55082 192.611 8.60048C192.611 8.60048 193.476 8.59055 193.067 8.46144H192.847C192.847 8.46144 192.847 8.36213 192.847 8.3224H193.067C193.067 8.3224 193.067 8.42171 193.067 8.46144C193.523 8.53096 193.067 8.22309 193.523 8.18336C194.451 8.68986 194.136 8.17343 195.3 8.34226V8.4813C195.819 8.39192 196.338 8.30254 196.857 8.21316V8.3522C196.998 8.3522 197.156 8.3522 197.297 8.3522C197.124 8.1635 197.156 8.18336 196.857 8.06419V7.92515C197.077 7.97481 197.297 8.02446 197.517 8.07412V7.65701C197.596 7.65701 197.675 7.65701 197.753 7.65701V7.79605C197.895 7.74639 198.052 7.70667 198.194 7.65701V7.93508C198.194 7.93508 198.335 7.93508 198.414 7.93508C198.65 7.6868 198.917 7.51797 199.31 7.37893V7.2399C199.625 7.32928 199.813 7.65701 200.427 7.5279L200.663 7.24983H201.103C201.103 7.02141 201.103 6.78306 201.119 6.55464H201.339C201.575 7.18031 201.858 6.77313 201.543 7.3988H202.44C202.44 7.30941 202.44 7.22003 202.44 7.13065H203.556C203.556 7.00155 203.556 6.86251 203.556 6.72347C204.012 6.88237 203.949 6.96182 204.657 7.01148V6.59437C204.657 6.59437 204.515 6.59437 204.437 6.59437V6.45533C204.657 6.40567 204.893 6.36595 205.113 6.31629V6.59437C205.254 6.59437 205.396 6.59437 205.553 6.59437V7.01148C205.805 6.8923 205.585 7.03134 205.773 6.87244C206.717 6.72347 206.513 6.50498 206.465 6.03822C207.079 6.2865 206.67 6.30636 206.906 6.46526C207.063 6.4156 207.204 6.37588 207.362 6.32622V6.46526C207.582 6.56457 207.802 6.65395 208.022 6.75327C208.101 6.66388 208.179 6.56457 208.258 6.47519H208.478C208.4 6.33615 208.337 6.19712 208.258 6.05808C209.092 6.14746 210.004 6.22691 210.271 5.51186H210.491C210.491 5.6509 210.491 5.79987 210.491 5.9389C210.711 5.98856 210.932 6.03822 211.152 6.08787C211.293 5.87932 211.34 5.85945 211.388 5.53172H211.608C211.686 5.63103 211.749 5.72042 211.828 5.81973C212.048 5.85945 213.338 5.35296 213.4 5.27351C213.479 5.41255 213.542 5.55158 213.621 5.70055C214.218 5.66083 214.816 5.6211 215.398 5.57145C215.398 5.57145 215.429 5.02523 215.634 5.29337V5.43241C215.854 5.43241 216.074 5.43241 216.294 5.43241V5.15433C216.671 5.29337 217.033 5.44234 217.411 5.58138C217.489 5.72042 217.552 5.85945 217.631 6.00842H218.071C218.071 6.00842 218.118 5.4622 218.307 5.73035V5.86938C218.307 5.86938 218.449 5.86938 218.527 5.86938V5.59131C218.087 5.50193 218.338 5.61117 218.087 5.44234C218.307 5.39268 218.527 5.35296 218.763 5.3033V5.44234C218.983 5.492 219.203 5.54165 219.424 5.59131C219.502 5.45227 219.581 5.31323 219.659 5.1742C219.832 5.07488 220.43 4.84647 220.776 4.90605V5.04509C220.776 5.04509 220.917 5.04509 220.996 5.04509C221.09 4.96564 220.807 4.62798 221.232 4.76702C221.374 4.90605 221.515 5.05502 221.672 5.19406L224.126 5.21392C224.047 5.12454 223.984 5.02523 223.905 4.93585C224.346 4.8564 224.094 4.95571 224.361 4.79681H224.582C224.503 4.93585 224.424 5.07488 224.346 5.21392C225.132 5.16427 225.431 5.02523 226.138 4.94578V4.6677C226.296 4.6677 226.437 4.6677 226.595 4.6677V4.52867C226.186 4.42935 226.343 4.62798 226.154 4.3797H226.374C226.374 4.3797 226.374 4.29032 226.374 4.24066C226.5 4.15128 226.783 4.63791 226.815 4.6677C227.459 4.56839 227.554 4.51873 227.711 4.11155H227.931C227.931 4.25059 227.931 4.39956 227.931 4.5386H228.828C228.906 4.63791 228.969 4.73722 229.048 4.8266C229.488 4.78688 229.944 4.73722 230.384 4.6975C230.542 4.73722 230.432 5.08482 231.045 4.9855C231.124 4.89612 231.202 4.79681 231.281 4.70743H231.721C231.721 4.56839 231.721 4.42935 231.721 4.29032C232.445 4.41942 232.555 4.60812 232.586 5.1444H232.806C232.885 4.91598 232.964 4.67763 233.042 4.44922H233.703C233.703 4.44922 233.703 4.35984 233.703 4.31018L235.48 4.33004C235.338 4.29032 235.275 3.97252 235.275 3.76396H235.495C235.495 3.86327 235.495 3.95265 235.495 4.05197L236.172 3.91293V4.05197C236.47 4.10162 236.753 4.15128 237.052 4.20094V4.47901C237.052 4.47901 237.194 4.47901 237.272 4.47901C237.288 4.0321 237.901 4.58825 237.933 4.62798H238.153C238.436 4.36977 238.247 3.95265 238.169 3.78382H238.389C238.468 3.69444 238.546 3.59513 238.625 3.50575H238.845C238.766 3.78382 238.625 3.76396 238.609 3.78382V3.92286C238.609 3.92286 238.751 3.92286 238.829 3.92286C238.782 4.13142 238.609 4.10162 238.373 4.20094C238.499 4.47901 238.342 4.32011 238.593 4.47901V4.33997C238.593 4.33997 238.751 4.33997 238.814 4.33997V4.47901C239.16 4.41942 239.144 4.24066 239.254 4.20094C239.474 4.25059 239.694 4.30025 239.914 4.3499C240.072 4.32011 240.009 4.0321 240.37 4.07183V4.21087C240.858 4.3499 240.984 4.43929 241.691 4.5088C241.77 4.36977 241.849 4.23073 241.927 4.09169L241.707 3.95265C242.446 4.191 241.927 4.26052 242.824 4.10162C242.902 4.24066 242.965 4.3797 243.044 4.52867H243.704C243.783 4.67763 243.846 4.81667 243.924 4.95571H244.585C244.585 4.95571 244.585 4.86633 244.585 4.81667H244.805C244.726 4.67763 244.664 4.5386 244.585 4.39956C244.742 4.3499 244.884 4.31018 245.041 4.26052C244.962 4.12149 244.899 3.98245 244.821 3.83348H245.261C245.324 4.02217 245.403 4.21087 245.466 4.39956H245.686C245.607 4.49887 245.529 4.58825 245.45 4.67763H245.67C245.859 4.83653 245.639 4.6975 245.89 4.8266V4.54853C246.047 4.54853 246.189 4.54853 246.346 4.54853C246.472 4.17114 246.582 4.02217 247.022 3.85334V3.7143C247.18 3.7143 247.321 3.7143 247.479 3.7143C247.337 3.92286 247.29 3.94272 247.243 4.27045C247.856 4.3797 248.045 4.54853 248.564 4.70743V4.84647C248.941 4.65777 249.318 4.47901 249.68 4.29032V4.56839C249.822 4.56839 249.963 4.56839 250.12 4.56839V4.9855C250.404 4.90605 250.592 4.8564 250.781 4.70743C251.725 4.55846 251.536 4.38963 251.457 4.01224C251.835 4.17114 251.772 4.10162 251.897 4.43928H252.338C252.338 4.5386 252.338 4.62798 252.338 4.72729H253.454C253.454 4.78688 253.454 4.8266 253.454 4.87626L254.131 4.73722V4.87626C254.398 5.00537 254.398 4.96564 254.571 5.16427H254.791C254.791 4.97557 254.791 4.78688 254.791 4.60812H255.231C255.153 4.79681 255.074 4.9855 254.995 5.1742C255.216 5.12454 255.436 5.08482 255.672 5.03516V5.1742C255.672 5.1742 255.813 5.1742 255.892 5.1742V5.03516C255.892 5.03516 256.049 5.03516 256.112 5.03516V5.1742C256.254 5.1742 256.411 5.1742 256.552 5.1742V5.31323C256.773 5.26358 256.993 5.22385 257.213 5.1742C257.071 5.45227 257.244 5.29337 256.977 5.45227C257.103 5.73035 256.946 5.57145 257.197 5.74028C257.386 5.89918 257.166 5.76014 257.417 5.87932V5.60124C257.637 5.6509 257.873 5.70055 258.093 5.75021V5.61117C258.093 5.61117 258.251 5.61117 258.314 5.61117V5.75021C258.612 5.79987 258.896 5.84952 259.194 5.89918L259.43 5.6211H259.871C259.729 5.90911 259.902 5.75021 259.635 5.90911C259.713 6.04815 259.776 6.18718 259.855 6.33615C260.374 6.29643 260.405 6.29643 260.751 6.20705V6.06801C261.066 6.0978 261.129 6.19712 261.648 6.21698V5.9389C261.805 5.9389 261.946 5.9389 262.104 5.9389C262.104 5.9389 262.088 5.39268 261.883 5.6509V5.78993C261.883 5.78993 261.726 5.78993 261.663 5.78993L261.899 5.37282H262.34C262.34 5.23378 262.34 5.09475 262.34 4.95571C262.56 5.00537 262.78 5.05502 263 5.10468V4.26052C262.481 4.17114 262.528 4.11155 262.135 3.97252L262.119 3.94272Z" fill="#FFA4BD"/>
<path fill-rule="evenodd" clip-rule="evenodd" d="M65.4512 0.357422V0.496459C65.4512 0.496459 65.294 0.496459 65.231 0.496459C65.4669 0.734809 65.7657 0.536184 66.3476 0.506391V0.367353C66.0488 0.367353 65.75 0.367353 65.4669 0.367353L65.4512 0.357422Z" fill="#FFA4BD"/>
<path fill-rule="evenodd" clip-rule="evenodd" d="M135.557 0.983398V1.40051C135.699 1.40051 135.84 1.40051 135.998 1.40051C136.139 1.12244 135.966 1.28134 136.233 1.12244V0.983398C136.013 0.983398 135.793 0.983398 135.573 0.983398H135.557Z" fill="#FFA4BD"/>
<path fill-rule="evenodd" clip-rule="evenodd" d="M136.218 1.13232V1.27136C136.438 1.27136 136.658 1.27136 136.878 1.27136V1.13232C136.658 1.13232 136.438 1.13232 136.218 1.13232Z" fill="#FFA4BD"/>
<path fill-rule="evenodd" clip-rule="evenodd" d="M128.418 1.3407C128.669 1.22152 128.449 1.36056 128.638 1.20166H128.198C128.119 1.29104 128.04 1.38042 127.962 1.47973C128.402 1.53932 128.245 1.41022 128.418 1.3407Z" fill="#FFA4BD"/>
<path fill-rule="evenodd" clip-rule="evenodd" d="M143.986 1.76794V1.62891C143.845 1.62891 143.688 1.62891 143.546 1.62891C143.798 1.78781 143.546 1.68849 143.986 1.77787V1.76794Z" fill="#FFA4BD"/>
<path fill-rule="evenodd" clip-rule="evenodd" d="M80.784 1.47986V1.34082C80.6424 1.34082 80.4852 1.34082 80.3436 1.34082C80.5952 1.49972 80.3436 1.40041 80.784 1.48979V1.47986Z" fill="#FFA4BD"/>
<path fill-rule="evenodd" clip-rule="evenodd" d="M117.944 1.66846V1.80749C117.693 1.92667 117.913 1.78763 117.708 1.94653H118.149C118.023 1.66846 118.18 1.82736 117.929 1.66846H117.944Z" fill="#FFA4BD"/>
<path fill-rule="evenodd" clip-rule="evenodd" d="M143.986 2.18481H144.647C144.647 2.09543 144.647 2.00605 144.647 1.90674H143.986C143.986 1.99612 143.986 2.0855 143.986 2.18481Z" fill="#FFA4BD"/>
<path fill-rule="evenodd" clip-rule="evenodd" d="M227.428 2.79089V2.65186C227.286 2.65186 227.129 2.65186 226.988 2.65186C227.239 2.81076 226.988 2.71144 227.428 2.80082V2.79089Z" fill="#FFA4BD"/>
<path fill-rule="evenodd" clip-rule="evenodd" d="M223.402 3.45609V3.31706C223.402 3.31706 223.559 3.31706 223.622 3.31706C223.465 3.1085 223.434 3.08864 223.418 2.75098C223.198 2.80063 222.978 2.84036 222.742 2.89001V3.16809C222.883 3.16809 223.025 3.16809 223.182 3.16809C223.308 3.44616 223.151 3.28726 223.402 3.44616V3.45609Z" fill="#FFA4BD"/>
<path fill-rule="evenodd" clip-rule="evenodd" d="M109.484 2.29431C109.735 2.17514 109.515 2.31417 109.704 2.15527H109.264C109.185 2.24465 109.106 2.33404 109.028 2.43335C109.468 2.49294 109.311 2.36383 109.484 2.29431Z" fill="#FFA4BD"/>
<path fill-rule="evenodd" clip-rule="evenodd" d="M172.23 2.99902H171.57C171.57 2.99902 171.57 3.0884 171.57 3.13806H172.23C172.23 3.13806 172.23 3.04868 172.23 2.99902Z" fill="#FFA4BD"/>
<path fill-rule="evenodd" clip-rule="evenodd" d="M182.247 3.08838H181.351C181.351 3.08838 181.351 3.17776 181.351 3.21749H182.247C182.247 3.21749 182.247 3.1281 182.247 3.08838Z" fill="#FFA4BD"/>
<path fill-rule="evenodd" clip-rule="evenodd" d="M182.672 3.37683V3.23779C182.531 3.23779 182.373 3.23779 182.232 3.23779C182.483 3.39669 182.232 3.29738 182.672 3.38676V3.37683Z" fill="#FFA4BD"/>
<path fill-rule="evenodd" clip-rule="evenodd" d="M207.157 3.73425C207.409 3.61508 207.189 3.75411 207.377 3.59521H206.937C206.859 3.6846 206.78 3.77398 206.701 3.87329C207.142 3.93288 206.984 3.80377 207.157 3.73425Z" fill="#FFA4BD"/>
<path fill-rule="evenodd" clip-rule="evenodd" d="M166.207 3.50574V3.3667C166.066 3.3667 165.908 3.3667 165.767 3.3667C166.018 3.5256 165.767 3.42629 166.207 3.51567V3.50574Z" fill="#FFA4BD"/>
<path fill-rule="evenodd" clip-rule="evenodd" d="M235.857 4.27043V4.5485C235.857 4.5485 235.999 4.5485 236.077 4.5485V3.98242C235.936 3.98242 235.794 3.98242 235.653 3.98242C235.778 4.2605 235.621 4.1016 235.873 4.2605L235.857 4.27043Z" fill="#FFA4BD"/>
<path fill-rule="evenodd" clip-rule="evenodd" d="M124.14 3.27722V3.13818C123.999 3.13818 123.841 3.13818 123.7 3.13818C123.952 3.29708 123.7 3.19777 124.14 3.28715V3.27722Z" fill="#FFA4BD"/>
<path fill-rule="evenodd" clip-rule="evenodd" d="M58.06 2.68164L58.2802 3.10868H58.7205C58.5947 2.83061 58.752 2.98951 58.5004 2.83061V2.69157C58.3588 2.69157 58.2016 2.69157 58.06 2.69157V2.68164Z" fill="#FFA4BD"/>
<path fill-rule="evenodd" clip-rule="evenodd" d="M235.181 4.40967V4.54871C234.929 4.66788 235.149 4.52884 234.945 4.68774H235.385C235.259 4.40967 235.417 4.56857 235.165 4.40967H235.181Z" fill="#FFA4BD"/>
<path fill-rule="evenodd" clip-rule="evenodd" d="M236.958 4.70743C236.958 4.70743 236.958 4.16121 236.738 4.41943V4.55846C236.518 4.55846 236.282 4.55846 236.062 4.55846V4.6975C236.36 4.6975 236.659 4.6975 236.942 4.6975L236.958 4.70743Z" fill="#FFA4BD"/>
<path fill-rule="evenodd" clip-rule="evenodd" d="M240.512 4.59802V4.45898C240.37 4.45898 240.213 4.45898 240.072 4.45898C240.323 4.61788 240.072 4.51857 240.512 4.60795V4.59802Z" fill="#FFA4BD"/>
<path fill-rule="evenodd" clip-rule="evenodd" d="M227.601 4.76697H226.705C226.705 4.76697 226.705 4.85635 226.705 4.89607H227.821C227.821 4.89607 227.821 4.81662 227.821 4.76697C228.073 4.64779 227.853 4.78683 228.041 4.62793H227.601C227.601 4.62793 227.601 4.71731 227.601 4.76697Z" fill="#FFA4BD"/>
<path fill-rule="evenodd" clip-rule="evenodd" d="M58.4846 3.24756V3.3866C58.233 3.50577 58.4532 3.36673 58.2487 3.52563H58.6891C58.5633 3.24756 58.7205 3.40646 58.4689 3.24756H58.4846Z" fill="#FFA4BD"/>
<path fill-rule="evenodd" clip-rule="evenodd" d="M59.1608 3.25732C59.4125 3.41622 59.1608 3.31691 59.6012 3.40629V3.26726C59.4596 3.26726 59.3024 3.26726 59.1608 3.26726V3.25732Z" fill="#FFA4BD"/>
<path fill-rule="evenodd" clip-rule="evenodd" d="M79.3844 4.41935V4.28032C79.1642 4.23066 78.944 4.181 78.7239 4.13135V4.40942C78.944 4.40942 79.1642 4.40942 79.3844 4.40942V4.41935Z" fill="#FFA4BD"/>
<path fill-rule="evenodd" clip-rule="evenodd" d="M105.426 4.50867V4.36963C105.285 4.36963 105.128 4.36963 104.986 4.36963C105.238 4.52853 104.986 4.42922 105.426 4.5186V4.50867Z" fill="#FFA4BD"/>
<path fill-rule="evenodd" clip-rule="evenodd" d="M213.117 5.47217C212.96 5.61121 212.819 5.75024 212.661 5.88928C212.866 6.0879 213.102 5.75024 213.102 5.75024H213.322C213.463 5.49203 213.196 5.55162 213.102 5.47217H213.117Z" fill="#FFA4BD"/>
<path fill-rule="evenodd" clip-rule="evenodd" d="M216.451 5.929V5.78996C216.451 5.78996 216.609 5.78996 216.671 5.78996V5.65092C216.231 5.60127 215.791 5.55161 215.351 5.50195C215.649 5.79989 215.932 5.79989 216.451 5.929Z" fill="#FFA4BD"/>
<path fill-rule="evenodd" clip-rule="evenodd" d="M81.6017 4.99565C81.3815 4.94599 81.1614 4.89634 80.9412 4.84668V5.12475C81.1614 5.12475 81.3815 5.12475 81.6017 5.12475V4.98572V4.99565Z" fill="#FFA4BD"/>
<path fill-rule="evenodd" clip-rule="evenodd" d="M71.8045 5.05518H71.3641C71.6158 5.21408 71.3641 5.11476 71.8045 5.19421V5.05518Z" fill="#FFA4BD"/>
<path fill-rule="evenodd" clip-rule="evenodd" d="M70.9081 5.32324H70.4678C70.7194 5.48214 70.4678 5.38283 70.9081 5.46228V5.32324Z" fill="#FFA4BD"/>
<path fill-rule="evenodd" clip-rule="evenodd" d="M7.86295 8.13379H7.20246C7.20246 8.13379 7.20246 8.22317 7.20246 8.27283H7.86295C7.86295 8.27283 7.86295 8.18345 7.86295 8.13379Z" fill="#FFA4BD"/>
</g>
<defs>
<clipPath id="clip0_134_187">
<rect width="263" height="13" fill="white"/>
</clipPath>
</defs>
</svg>
