<svg width="34" height="8" viewBox="0 0 34 8" fill="none" xmlns="http://www.w3.org/2000/svg">
<g clip-path="url(#clip0_2007_261)">
<path fill-rule="evenodd" clip-rule="evenodd" d="M33.8466 0.946294C33.8335 1.0268 33.8203 1.1073 33.8028 1.1878H33.851C33.851 1.1878 33.851 1.25824 33.851 1.28843C33.7896 1.19787 33.8422 1.30856 33.7984 1.1878H33.7502C33.7809 1.0268 33.7896 0.996609 33.7853 0.72491C33.6888 0.775225 33.6976 0.845665 33.6888 0.855728C33.6231 0.926168 33.6801 0.805414 33.6363 0.755099C33.5618 0.795351 33.5749 0.885917 33.5442 1.00667H33.496C33.5092 0.855728 33.5179 0.704785 33.5311 0.543778C33.5311 0.543778 33.3339 0.563904 33.4259 0.443149H33.4741C33.4741 0.443149 33.4741 0.352583 33.4741 0.322395C33.4127 0.231829 33.4653 0.34252 33.4215 0.221766C33.2331 0.251954 33.1936 0.121137 33.0709 0.292206C33.0578 0.372709 33.0446 0.453212 33.0271 0.533715C33.0183 0.533715 32.6809 0.483401 32.5713 0.503527L32.5581 0.161388L32.3565 0.20164V0.0909481C32.3565 0.0909481 32.3171 0.0909481 32.304 0.0909481V0.20164C32.304 0.20164 32.1155 0.251954 32.2119 0.332458H32.2601C32.2601 0.332458 32.2601 0.402898 32.2601 0.433086C32.0673 0.392835 32.098 0.382772 31.9095 0.503527C31.9095 0.503527 31.8701 0.0506965 31.8525 0.282143V0.392835C31.7737 0.412961 31.6904 0.423024 31.6071 0.443149V0.332458C31.5019 0.292206 31.537 0.412961 31.5063 0.463275H31.4581C31.4581 0.463275 31.4581 0.392835 31.4581 0.362646L31.2083 0.412961C31.1908 0.34252 31.1689 0.262017 31.1513 0.191577C31.0681 0.151325 31.0637 0.322395 31.0549 0.322395L30.8051 0.372709V0.483401C30.6868 0.58403 30.5246 0.412961 30.5027 0.423024H30.4545C30.4545 0.423024 30.4545 0.51359 30.4545 0.543778L30.3537 0.563904V0.453212C30.4282 0.372709 30.4633 0.322395 30.5947 0.292206V0.181514C30.4896 0.20164 30.3888 0.221766 30.2924 0.241891L30.3011 0.473338L30.2003 0.493464C30.1828 0.423024 30.1609 0.34252 30.1433 0.27208C30.0425 0.27208 30.0951 0.573967 29.9505 0.543778L29.8979 0.443149C29.8585 0.58403 29.9067 0.463275 29.8541 0.563904L29.8409 0.221766L29.6919 0.251954L29.7007 0.483401C29.5385 0.553841 29.5561 0.614219 29.4597 0.765162L29.4509 0.533715L29.3501 0.553841L29.3413 0.322395L29.2405 0.34252C29.2274 0.503527 29.2186 0.65447 29.2055 0.815476L29.1047 0.835602L29.0959 0.604156C29.1923 0.51359 29.1397 0.604156 29.1923 0.473338L29.0915 0.493464L29.0784 0.151325L28.9776 0.171451C28.9469 0.292206 28.9206 0.412961 28.8899 0.533715C28.7891 0.51359 28.6883 0.493464 28.5875 0.473338V0.362646C28.5875 0.362646 28.5481 0.362646 28.5349 0.362646V0.473338C28.4692 0.443149 28.4035 0.423024 28.3333 0.392835C28.3114 0.624281 28.3421 0.493464 28.2895 0.634344V0.745036C28.2895 0.745036 28.2588 0.745036 28.2457 0.745036V0.634344C28.2062 0.634344 28.1756 0.644407 28.1405 0.65447L28.1843 0.412961L28.0835 0.433086L28.0748 0.20164C27.9784 0.292206 28.0309 0.20164 27.9784 0.332458H27.9301C27.9433 0.262017 27.9564 0.181514 27.974 0.101011C27.8556 0.101011 27.8469 0.0708223 27.768 0.0205078L27.7768 0.251954L27.8776 0.231829L27.8907 0.573967H27.8425C27.8425 0.573967 27.8425 0.503527 27.8425 0.473338C27.7943 0.523652 27.7461 0.563904 27.6979 0.614219L27.6891 0.382772C27.6234 0.473338 27.562 0.563904 27.4963 0.65447L27.4875 0.423024C27.4875 0.423024 27.2947 0.463275 27.3911 0.553841H27.4393C27.4393 0.553841 27.4393 0.624281 27.4393 0.65447C27.3516 0.543778 27.3692 0.594093 27.3253 0.332458C27.2728 0.302269 27.2246 0.27208 27.172 0.241891V0.352583C27.1413 0.352583 27.1106 0.362646 27.0755 0.372709L27.0843 0.604156C26.9134 0.704785 26.9967 0.734973 26.8345 0.65447L26.7775 0.433086L26.8214 0.312332C26.7512 0.251954 26.6811 0.181514 26.611 0.121137L26.6198 0.352583C26.6198 0.352583 26.8126 0.322395 26.7249 0.453212H26.6767C26.6767 0.543778 26.6811 0.614219 26.6855 0.694722C26.6154 0.614219 26.6241 0.624281 26.5759 0.483401L26.3743 0.523652L26.4313 0.745036C26.3217 0.745036 26.256 0.664533 26.2253 0.664533V0.775225C26.1333 0.775225 26.0763 0.815476 26.0237 0.694722L26.015 0.463275C25.9799 0.433086 25.9448 0.402898 25.9098 0.362646C25.9229 0.282143 25.9361 0.20164 25.9536 0.121137L25.8046 0.151325C25.7827 0.382772 25.8134 0.251954 25.7608 0.392835C25.7608 0.443149 25.7783 0.594093 25.7169 0.51359L25.7082 0.282143H25.66C25.6644 0.815476 25.5986 0.775225 25.7345 0.976483V1.08717C25.7038 1.08717 25.6731 1.09724 25.6381 1.1073C25.603 0.936231 25.5899 0.926168 25.5723 0.65447C25.5723 0.65447 25.3751 0.674596 25.4671 0.553841H25.5153C25.5153 0.553841 25.5153 0.463275 25.5153 0.433086L25.3663 0.463275C25.3883 0.573967 25.4058 0.684659 25.4277 0.795351C25.3313 0.664533 25.4189 0.644407 25.3707 0.573967C25.3707 0.573967 25.2349 0.714848 25.1735 0.72491L25.1647 0.493464C25.1165 0.543778 25.0683 0.58403 25.0201 0.634344V0.745036C24.9588 0.795351 25.0333 0.714848 24.9719 0.644407C24.9237 0.694722 24.8755 0.734973 24.8273 0.785288V0.674596C24.7878 0.674596 24.7572 0.684659 24.7221 0.694722C24.7353 0.614219 24.7484 0.533715 24.7659 0.453212H24.7177C24.7177 0.453212 24.7177 0.382772 24.7177 0.352583L24.6213 0.483401L24.6607 0.1312L24.5117 0.161388C24.5468 0.332458 24.5599 0.34252 24.5775 0.614219C24.5249 0.523653 24.4986 0.433086 24.4635 0.292206H24.4153C24.4372 0.412961 24.4548 0.523652 24.4767 0.634344C24.297 0.734973 24.2225 0.795351 24.0866 0.704785H24.1261C24.0866 0.473338 24.1261 0.594093 24.0691 0.473338L24.0779 0.694722C24.0472 0.674596 24.0121 0.644407 23.9727 0.604156L23.9814 0.835602C23.7755 0.734973 23.8719 0.624281 23.7141 0.423024V0.312332C23.6265 0.443149 23.6396 0.493464 23.5169 0.58403L23.5081 0.352583C23.4073 0.332458 23.3065 0.312332 23.2057 0.292206L23.2145 0.523652C23.1268 0.493464 22.9998 0.322395 22.9559 0.34252V0.453212C22.9559 0.453212 22.9252 0.453212 22.9121 0.453212C22.9252 0.372709 22.9384 0.292206 22.9559 0.211703L22.8551 0.231829L22.8639 0.463275L22.7631 0.483401L22.7806 0.946294H22.8288C22.8288 0.946294 22.8288 1.01673 22.8288 1.04692L22.728 1.06705C22.6667 0.72491 22.6754 0.96642 22.7105 0.604156C22.6491 0.51359 22.7017 0.624281 22.6579 0.503527L22.5571 0.523652V0.634344C22.5571 0.634344 22.5966 0.634344 22.6097 0.634344C22.5966 0.795351 22.5878 0.946294 22.5746 1.1073C22.5133 1.01673 22.5659 1.12743 22.5221 1.00667L22.4213 1.0268C22.4432 0.835602 22.4563 0.745036 22.4519 0.443149C22.3511 0.392835 22.4081 0.463275 22.3467 0.34252H22.2985C22.3073 0.543778 22.3117 0.734973 22.3205 0.926168C22.2591 0.805414 22.2985 0.926168 22.2635 0.704785H22.2153C22.2197 0.865791 22.224 1.01673 22.2328 1.17774H22.1846C22.1846 1.26831 22.189 1.33875 22.1934 1.41925H22.1451C22.1583 1.26831 22.1671 1.11736 22.1802 0.956357C22.0838 1.04692 22.1364 0.956357 22.0838 1.08717H22.0356C22.0531 0.865791 22.0663 0.885917 22.0137 0.523652H21.9655C21.9655 0.523652 21.9655 0.453212 21.9655 0.423024L22.0093 0.302269H21.9611C21.9611 0.302269 21.9611 0.231829 21.9611 0.20164C21.8603 0.34252 21.9173 0.292206 21.8121 0.231829C21.8296 0.533715 21.8471 0.614219 21.8822 0.795351L21.7814 0.815476L21.7726 0.58403C21.7288 0.453212 21.7288 0.704785 21.7288 0.704785C21.6894 0.956357 21.6718 0.906043 21.536 0.976483L21.5272 0.745036C21.33 0.855728 21.3607 0.72491 21.2905 1.13749H21.2423C21.2555 1.05699 21.33 0.855728 21.2774 0.674596H21.2292C21.2292 0.674596 21.2292 0.604156 21.2292 0.573967C21.181 0.624281 21.1328 0.664533 21.0846 0.714847V0.604156C21.0846 0.604156 21.0451 0.604156 21.032 0.604156V0.493464C21.032 0.493464 20.9925 0.493464 20.9794 0.493464L20.9925 0.835602C20.826 0.855728 20.7646 0.845665 20.6858 0.664533C20.6858 0.664533 20.4973 0.694722 20.5893 0.795351C20.6156 0.946294 20.6595 0.745036 20.6419 0.89598H20.5937C20.6419 1.1073 20.6025 0.936231 20.6989 0.996608V1.1073C20.563 1.05699 20.585 0.976483 20.4447 0.926168L20.4316 0.58403C20.3702 0.694722 20.3746 0.674596 20.3395 0.835602C20.3395 0.835602 20.1423 0.855728 20.2343 0.734973H20.2826C20.2826 0.734973 20.2826 0.644407 20.2826 0.614219C20.1861 0.674596 20.081 0.885917 19.9363 0.795351V0.684659C19.8136 0.634344 19.6953 0.573967 19.5726 0.523652C19.52 0.604156 19.6208 0.664533 19.5288 0.765162L19.4718 0.543778C19.2614 0.443149 19.3052 1.04692 19.2307 0.825539L19.1299 0.845665L19.1212 0.614219L19.0204 0.634344C19.0072 0.755099 18.9941 0.865791 18.9809 0.986546H19.0291C19.0291 1.05699 19.0335 1.12743 19.0379 1.20793H18.9897C18.9678 1.06705 18.9459 0.916105 18.924 0.765162C18.924 0.765162 18.6216 0.936231 18.7793 0.906042H18.8275C18.8275 0.906042 18.8275 0.976483 18.8275 1.00667C18.7662 0.946294 18.7048 0.936231 18.6698 0.805414C18.7399 0.765162 18.718 0.845665 18.7136 0.684659C18.6128 0.745036 18.5164 0.795351 18.4156 0.855728L18.363 0.755099V0.865791C18.2885 0.96642 18.2534 0.986546 18.1219 1.0268L18.1351 1.36894H18.0869C18.065 1.26831 18.0474 1.15761 18.0255 1.04692C17.9466 0.946294 17.8809 1.08717 17.8195 0.96642L17.8108 0.734973C17.8108 0.734973 17.6662 0.865791 17.6136 0.885917C17.5303 0.916105 17.5172 1.01673 17.5172 1.01673C17.3988 0.996608 17.2805 0.986546 17.1622 0.96642L17.1709 1.19787L17.1183 1.09724C17.0351 1.06705 17.0351 1.22806 17.0219 1.22806C16.8422 1.34881 16.6932 1.22806 16.5661 1.19787L16.553 0.855728C16.3382 1.12743 16.3864 1.12743 16.1542 0.926168V1.03686C16.1542 1.03686 16.1235 1.03686 16.1103 1.03686C16.0797 1.1073 16.2594 1.22806 16.2681 1.23812L16.2769 1.46956C16.198 1.41925 16.1936 1.38906 16.0709 1.38906L16.0578 1.04692H16.0095C15.9964 1.17774 15.9833 1.28843 15.9701 1.40919C15.8167 1.30856 15.9131 1.43938 15.9087 1.07711L15.8079 1.09724L15.8167 1.32868H15.7685C15.7641 1.1878 15.7597 1.0268 15.751 0.875854L15.6502 0.89598L15.6633 1.23812C15.5801 1.21799 15.4924 1.1878 15.4091 1.16768L15.4179 1.39912L15.2601 1.19787V1.30856C15.2601 1.30856 15.2294 1.30856 15.2163 1.30856C15.2294 1.22806 15.2426 1.14755 15.2601 1.06705C15.0717 1.12743 15.0366 1.21799 14.9183 1.35887L14.9095 1.12743C14.6466 1.12743 14.7517 1.03686 14.5633 1.30856L14.5545 1.07711L14.4055 1.1073C14.3661 0.885917 14.4055 1.00667 14.3486 0.885917L14.3573 1.11736L14.2565 1.13749V1.24818C14.3135 1.23812 14.3486 1.32868 14.3179 1.46956H14.2697C14.2697 1.46956 14.2697 1.56013 14.2697 1.59032H14.2215C14.2346 1.47963 14.2478 1.35887 14.2609 1.24818H14.2127C14.2127 1.24818 14.2127 1.17774 14.2127 1.14755L14.0111 1.1878L14.0242 1.52994C13.9454 1.47963 13.941 1.44944 13.8183 1.44944C13.8533 1.32868 13.8752 1.32868 13.9103 1.19787C13.8446 1.13749 13.8007 1.1073 13.7525 0.996608H13.7043C13.7043 1.11736 13.7131 1.23812 13.7175 1.34881L13.4677 1.39912L13.4808 1.74126H13.4326C13.4107 1.64063 13.3932 1.52994 13.3712 1.41925L13.0688 1.47963C13.0513 1.40919 13.0294 1.32868 13.0119 1.25824C12.8979 1.35887 12.784 1.4595 12.67 1.55007C12.635 1.40919 12.6131 1.31862 12.5561 1.22806C12.4202 1.03686 12.3589 1.41925 12.2668 1.63057V1.51988C12.2668 1.51988 12.2274 1.51988 12.2142 1.51988L12.2011 1.17774H12.1529C12.1529 1.17774 12.1529 1.1073 12.1529 1.07711H12.1047C12.1047 1.16768 12.1091 1.23812 12.1134 1.31862C12.1134 1.31862 11.9206 1.35887 12.017 1.44944H12.0652C12.0652 1.44944 12.0652 1.51988 12.0652 1.55007C12.0126 1.51988 11.9644 1.48969 11.9118 1.4595V1.57019C11.7979 1.59032 11.6839 1.61045 11.5656 1.64063C11.5656 1.64063 11.5744 1.51988 11.4604 1.54V1.6507C11.4604 1.6507 11.4298 1.6507 11.4166 1.6507C11.3947 1.54 11.3772 1.42931 11.3553 1.31862H11.307C11.2939 1.40919 11.2808 1.48969 11.2632 1.57019H11.215C11.2282 1.49975 11.2413 1.41925 11.2588 1.33875C11.1931 1.38906 11.1274 1.43938 11.0616 1.48969V1.60038C11.0134 1.57019 10.9608 1.54 10.9126 1.50982C10.8995 1.63057 10.8863 1.74126 10.8732 1.86202H10.825C10.7855 1.72114 10.7198 1.75133 10.619 1.79158C10.4875 1.89221 10.356 1.99283 10.2246 2.09346C10.1281 1.7312 10.1106 1.99283 10.1544 1.52994C10.0887 1.58026 10.023 1.63057 9.95721 1.68089V1.57019C9.88709 1.54 9.81697 1.51988 9.74685 1.48969C9.78629 1.71107 9.74685 1.59032 9.80382 1.71107C9.78191 1.99284 9.79944 1.93246 9.71617 2.07334V2.18403C9.64605 2.11359 9.6329 2.09346 9.51457 2.10353L9.50581 1.87208L9.30421 1.91233L9.29544 1.68089L9.14206 1.59032L9.09823 1.83183C8.94484 1.99284 8.74762 1.83183 8.64244 1.80164L8.63368 1.57019C8.51096 1.58026 8.49343 1.48969 8.4277 1.48969C8.38387 1.55007 8.41893 1.71107 8.33566 1.74126V1.63057C8.33566 1.63057 8.29622 1.63057 8.28307 1.63057L8.29184 1.86202C8.16036 1.86202 8.12092 1.86202 8.03765 1.79158V1.68089C7.98506 1.7312 7.93685 1.77145 7.88864 1.82177C7.88864 1.82177 7.86673 1.67082 7.73525 1.7312V1.84189C7.73525 1.84189 7.70457 1.84189 7.69142 1.84189V1.7312C7.58624 1.75133 7.48544 1.77145 7.38903 1.79158V1.90227C7.35835 1.90227 7.32767 1.91233 7.29261 1.92239V2.03309C7.12607 2.17397 7.13484 1.87208 7.08663 1.84189C7.03842 1.89221 6.99021 1.93246 6.942 1.98277V1.87208C6.87188 1.83183 6.70973 1.80164 6.63961 1.93246V2.04315C6.63961 2.04315 6.60893 2.04315 6.59578 2.04315C6.60893 1.92239 6.62208 1.8117 6.63522 1.69095L6.48622 1.72114V1.83183C6.44239 1.88214 6.39418 1.92239 6.34597 1.97271V1.86202C6.289 1.83183 6.24079 1.80164 6.1882 1.77145V1.66076C5.9866 1.51988 5.8858 1.70101 5.6842 1.75133L5.67544 1.51988H5.62723C5.62723 1.51988 5.62723 1.61045 5.62723 1.64063C5.43878 1.85195 5.6097 1.95258 5.32922 1.8117L5.34675 2.2746L5.19774 2.30478L5.18897 2.07334L5.03997 2.10353L5.02244 1.64063C4.89096 1.82177 4.92164 1.99283 4.77263 1.69095H4.72442C4.7288 1.85195 4.73319 2.0029 4.74195 2.1639H4.69374C4.68059 2.25447 4.66745 2.33497 4.64992 2.41548L4.54912 2.4356C4.53597 2.55636 4.52282 2.66705 4.50967 2.7878L4.36067 2.81799V2.7073C4.36067 2.7073 4.32122 2.7073 4.30808 2.7073L4.32122 3.04944C4.2511 2.96894 4.25987 2.979 4.21166 2.83812L3.86105 2.90856V3.01925C3.86105 3.01925 3.9005 3.01925 3.91364 3.01925V3.12994C3.91364 3.12994 3.88297 3.12994 3.86982 3.12994C3.79093 3.30101 3.70328 3.20038 3.51921 3.20038C3.47977 2.979 3.51921 3.09975 3.46224 2.979V2.86831C3.38335 2.95887 3.32638 3.15007 3.21682 3.15007V3.03938C3.14231 3.06956 3.23435 3.12994 3.16861 3.16013C3.08534 3.14 2.99769 3.10982 2.91442 3.08969C2.90127 3.17019 2.88812 3.2507 2.87059 3.3312C2.72597 3.46202 2.74788 2.979 2.57258 3.50227H2.52437C2.53752 3.35133 2.54628 3.20038 2.55943 3.03938C2.52875 3.08969 2.4674 3.29095 2.4674 3.29095L2.165 3.35133V3.24063C2.11241 3.29095 2.0642 3.3312 2.01599 3.38151C1.97655 3.16013 2.01599 3.28089 1.95902 3.16013V3.04944C1.8889 3.09975 1.82316 3.15007 1.75742 3.20038V3.31107C1.71359 3.31107 1.661 3.3312 1.61279 3.34126L1.59965 2.99912C1.53391 3.08969 1.47255 3.18026 1.40681 3.27082C1.33669 3.2507 1.42434 3.18026 1.35422 3.17019C1.33231 3.35133 1.31916 3.36139 1.31916 3.64315H1.27095C1.27095 3.54252 1.26219 3.42177 1.25781 3.31107L1.05621 3.35133V3.46202C1.05621 3.46202 1.02553 3.46202 1.01238 3.46202V3.35133C0.92473 3.37145 0.841461 3.38151 0.758192 3.40164L0.766957 3.63309H0.815166C0.815166 3.69346 0.780105 3.84441 0.780105 4.09598C0.727514 4.06579 0.679306 4.0356 0.626715 4.00541L0.63548 4.23686H0.587272C0.587272 4.16642 0.582889 4.09598 0.578507 4.01548L0.3287 4.06579C0.306787 4.29724 0.337465 4.16642 0.284874 4.3073C0.34623 4.42806 0.284874 4.35761 0.390056 4.40793C0.368143 4.63938 0.398821 4.50856 0.34623 4.64944V4.76013C0.34623 4.76013 0.315552 4.76013 0.302405 4.76013C0.267344 4.58906 0.254196 4.579 0.236666 4.3073C0.188458 4.35761 0.140249 4.39787 0.092041 4.44818C0.140249 4.75007 0.113954 4.70982 0.254196 4.76013L0.262961 4.99158L0.113954 5.02177L0.122719 5.25321L0.271727 5.22302L0.284874 5.56516C0.468942 5.56516 0.65301 5.56516 0.841461 5.57522C0.863374 5.68592 0.880904 5.79661 0.902817 5.9073H0.854609C0.854609 6.31988 0.867756 6.31988 0.775722 6.51107V6.40038C0.775722 6.40038 0.736279 6.40038 0.723132 6.40038L0.745044 6.97397C0.745044 6.97397 0.714366 6.97397 0.701219 7.21548C0.784488 7.2356 0.872139 7.26579 0.955408 7.28592C0.999234 7.54755 0.977321 7.49724 1.06935 7.60793V7.71862C1.17015 7.779 1.14386 7.63812 1.17015 7.5878L1.31916 7.55762C1.30601 7.67837 1.29287 7.78906 1.27972 7.90982L1.48132 7.86957C1.46379 7.79912 1.44187 7.71862 1.42434 7.64818C1.49446 7.6985 1.55582 7.79912 1.67853 7.71862C1.6873 7.71862 1.6873 7.53749 1.77495 7.5878C1.79248 7.65824 1.81439 7.73875 1.83192 7.80919C1.96778 7.87963 1.9897 7.67837 2.02476 7.53749H2.07296C2.07296 7.63812 2.08173 7.75887 2.08611 7.86957C2.13432 7.779 2.18253 7.6985 2.22635 7.60793V7.49724C2.25703 7.52743 2.29209 7.55762 2.32715 7.59787C2.37536 7.48717 2.35345 7.36642 2.4148 7.2356C2.4674 7.40667 2.49807 7.46705 2.57696 7.54755V7.65824C2.66461 7.52743 2.65146 7.47711 2.77418 7.38655L2.78732 7.72868L2.93633 7.6985C2.95824 7.46705 2.92757 7.59787 2.98016 7.45699V7.34629C2.98016 7.34629 3.01083 7.34629 3.02398 7.34629L3.03275 7.57774L3.18176 7.54755V7.65824C3.21243 7.64818 3.3965 7.68843 3.33076 7.51736H3.28255C3.28255 7.51736 3.28255 7.44692 3.28255 7.41673L3.38774 7.51736C3.40088 7.43686 3.41403 7.35636 3.43156 7.27585C3.62001 7.31611 3.80408 7.35636 3.99253 7.40667V7.51736C4.04512 7.51736 4.09771 7.49724 4.14592 7.48717C4.12401 7.37648 4.10648 7.26579 4.08456 7.1551L4.18536 7.13497L4.19851 7.47711C4.36505 7.35636 4.38258 7.18529 4.53597 7.06453C4.51406 7.29598 4.54474 7.16516 4.49214 7.30604V7.41673C4.59733 7.43686 4.69813 7.45699 4.79892 7.47711C4.81645 7.04441 4.82522 7.16516 4.82084 6.66202C4.87343 6.75258 4.89972 6.84315 4.93478 6.98403C5.12323 6.89346 5.07064 6.81296 5.22842 6.70227V6.81296C5.19774 6.81296 5.16706 6.82302 5.132 6.83309C5.20212 7.16516 5.132 6.9639 5.28539 6.92365C5.27224 7.04441 5.25909 7.1551 5.24595 7.27585C5.34675 7.32617 5.28977 7.25573 5.35113 7.37648H5.39934C5.39934 7.25573 5.39057 7.13497 5.38619 7.02428H5.4344C5.45631 7.12491 5.47384 7.2356 5.49575 7.34629C5.65353 7.27585 5.82006 7.06453 5.88142 6.81296H5.92963C5.91648 6.92365 5.90333 7.04441 5.89018 7.1551L6.09178 7.11485V7.00416C6.05234 7.00416 6.02166 7.01422 5.9866 7.02428L5.97784 6.79284C6.04358 6.74252 6.10931 6.69221 6.17505 6.64189L6.20135 7.33623C6.35036 7.22554 6.36789 7.11485 6.54319 7.04441L6.53442 6.81296H6.58263C6.58263 6.81296 6.58263 6.8834 6.58263 6.91359C6.63522 6.94378 6.68343 6.97397 6.73602 7.00416V7.11485C6.9683 7.24567 6.99021 6.79284 7.19181 7.03434H7.24002C7.24002 7.03434 7.24002 6.94378 7.24002 6.91359L7.34082 6.89346V6.78277C7.24002 6.72239 7.28384 6.87334 7.23125 6.68214H7.27946C7.27946 6.68214 7.27946 6.59158 7.27946 6.56139C7.38026 6.62177 7.41532 6.71233 7.53803 6.74252C7.49859 6.52114 7.53803 6.64189 7.48106 6.52114V6.41045C7.71334 6.51107 7.74401 6.71233 8.09024 6.64189L8.08147 6.41045C8.08147 6.41045 8.27431 6.36013 8.17789 6.27963H8.12968C8.12968 6.27963 8.12968 6.20919 8.12968 6.179L8.18227 6.27963C8.23048 6.22931 8.27869 6.18906 8.3269 6.13875L8.33566 6.37019C8.33566 6.37019 8.45837 6.34 8.45837 6.27963C8.47152 6.34 8.48029 6.40038 8.49343 6.46076C8.53288 6.56139 8.59862 6.5312 8.65121 6.66202C8.72571 6.49095 8.74324 6.30982 8.83527 6.16894L8.84404 6.40038L8.94484 6.38026C8.93169 6.50101 8.91854 6.6117 8.9054 6.73246C8.98866 6.75258 9.07632 6.78277 9.15958 6.8029L9.15082 6.57145C9.05002 6.52114 9.10699 6.59158 9.04564 6.47082C9.22971 6.31988 9.17273 6.20919 9.27792 5.96768V5.85699C9.27792 5.85699 9.30859 5.85699 9.32174 5.85699L9.33489 6.19912H9.3831C9.37871 6.03812 9.37433 5.88718 9.36557 5.72617H9.41377C9.41377 5.72617 9.41377 5.6356 9.41377 5.60541L9.51457 5.58529C9.50143 5.70604 9.48828 5.81673 9.47513 5.93749H9.52334C9.52334 6.00793 9.52772 6.07837 9.5321 6.15887H9.58031C9.58031 6.22931 9.58469 6.29975 9.58908 6.38026C9.67235 6.14881 9.69426 6.41045 9.84327 6.4507L9.8345 6.21925C9.95283 6.20919 9.98351 6.30982 10.0405 6.29975V6.18906C10.1369 6.03812 10.1194 5.9878 10.2771 5.9073C10.2552 5.75636 10.2333 5.60541 10.2114 5.45447L10.3604 5.42428C10.3823 5.57522 10.4042 5.72617 10.4261 5.87711L10.5269 5.85699C10.4875 5.6356 10.5269 5.75636 10.47 5.6356V5.52491C10.5007 5.5551 10.5357 5.58529 10.5708 5.62554L10.5883 6.08843L10.7373 6.05824V5.94755C10.7373 5.94755 10.768 5.94755 10.7811 5.94755V5.83686C10.7417 5.83686 10.711 5.84692 10.676 5.85699L10.6628 5.51485C10.7548 5.60541 10.7461 5.66579 10.8732 5.70604L10.8907 6.16894C10.9389 6.06831 10.9345 6.01799 10.9827 5.91736C11.0572 6.0985 11.1317 6.27963 11.2019 6.4507H11.2501C11.2851 6.22931 11.2106 6.15887 11.1887 6.10856V5.99787C11.2194 6.02806 11.2545 6.05824 11.2895 6.0985C11.3202 5.97774 11.3465 5.85699 11.3772 5.73623C11.627 5.71611 11.5174 5.68592 11.5875 6.04818H11.6357C11.6357 6.04818 11.6357 6.11862 11.6357 6.14881H11.6839C11.6796 5.9878 11.6752 5.83686 11.6664 5.67585C11.8286 5.75636 11.7453 5.72617 11.9162 5.62554C11.8768 5.40416 11.9162 5.52491 11.8593 5.40416V5.29346C11.9557 5.34378 11.8987 5.27334 11.96 5.39409C12.0039 5.50479 12.0126 5.8268 11.9863 6.08843L12.1354 6.05824V5.94755C12.1354 5.94755 12.3238 5.89724 12.2274 5.81673H12.1792C12.1792 5.81673 12.1792 5.74629 12.1792 5.71611C12.3457 5.80667 12.4115 5.72617 12.578 5.64567L12.5911 5.9878L12.7401 5.95762L12.727 5.61548H12.7752C12.7752 5.61548 12.7752 5.52491 12.7752 5.49472C12.8278 5.41422 12.8234 5.64567 12.8848 5.70604C12.8979 5.62554 12.9111 5.54504 12.9286 5.46453L13.0294 5.44441V5.33372C13.0776 5.3639 13.1302 5.39409 13.1784 5.42428C13.2047 5.27334 13.2178 5.17271 13.2661 5.06202V4.95133C13.2661 4.95133 13.2967 4.95133 13.3099 4.95133C13.3712 5.15258 13.2792 5.30353 13.2748 5.42428C13.288 5.46453 13.3493 5.50478 13.3844 5.6356H13.4326C13.4326 5.6356 13.4326 5.70604 13.4326 5.73623L13.5816 5.70604V5.81673C13.5816 5.81673 13.621 5.81673 13.6342 5.81673C13.5904 5.5551 13.6123 5.60541 13.5202 5.49472C13.5202 5.49472 13.5115 5.04189 13.5641 5.25321V5.3639C13.5641 5.3639 13.6035 5.3639 13.6167 5.3639V5.25321C13.6167 5.25321 13.6473 5.25321 13.6605 5.25321L13.6693 5.48466C13.735 5.61548 13.7744 5.6356 13.8796 5.67585V5.78655C13.9804 5.84692 13.9541 5.70604 13.9804 5.65573H14.0286C14.0286 5.65573 14.0286 5.56516 14.0286 5.53497L13.8796 5.56516L13.8709 5.33372C14.0724 5.33372 14.0593 5.43434 14.2215 5.26328L14.2302 5.49472L14.1294 5.51485L14.1382 5.74629C14.1864 5.69598 14.2346 5.65573 14.2828 5.60541V5.49472C14.2828 5.49472 14.3135 5.49472 14.3266 5.49472V5.60541C14.4406 5.62554 14.4756 5.43434 14.5282 5.45447L14.5808 5.5551C14.5545 5.29346 14.5282 5.02177 14.5019 4.76013H14.4537C14.4537 4.76013 14.4537 4.68969 14.4537 4.6595C14.3442 4.59912 14.3398 4.81044 14.3135 4.92114H14.2653C14.296 4.81044 14.3223 4.68969 14.3529 4.56894L14.1995 4.47837V4.36768C14.2434 4.36768 14.296 4.34755 14.3442 4.33749V4.44818C14.3442 4.44818 14.5414 4.39787 14.445 4.31736H14.3968C14.3968 4.31736 14.3968 4.24692 14.3968 4.21673H14.445C14.445 4.21673 14.445 4.28717 14.445 4.31736H14.4932C14.48 4.42806 14.4669 4.54881 14.4537 4.6595L14.6027 4.62931L14.6115 4.86076L14.7123 4.84063C14.6904 5.07208 14.7211 4.94126 14.6685 5.08214L14.6816 5.42428H14.7298C14.7298 5.42428 14.7298 5.49472 14.7298 5.52491C14.778 5.4746 14.8263 5.43434 14.8745 5.38403C14.9446 5.38403 14.8613 5.54504 14.9271 5.48466L14.9709 5.3639V5.4746C14.9709 5.4746 15.0103 5.4746 15.0235 5.4746L15.0016 4.90101H15.0498C15.0498 5.00164 15.0585 5.12239 15.0629 5.23309C15.3259 5.18277 15.453 5.09221 15.6063 4.90101L15.6151 5.13246L15.7159 5.11233C15.7159 5.11233 15.6852 4.70982 15.7597 4.87082V4.98151C15.8474 4.84063 15.8299 4.89095 15.8518 4.61925H15.9C15.8868 4.77019 15.8781 4.92114 15.8649 5.08214C15.9833 5.03183 15.9876 5.0117 16.0621 4.9312L16.0709 5.16265C16.0709 5.16265 16.2637 5.11233 16.1673 5.03183H16.1191C16.1191 5.03183 16.1191 4.96139 16.1191 4.9312L16.3689 4.88089L16.3777 5.11233C16.4478 5.14252 16.5135 5.16265 16.5837 5.19283V5.08214C16.645 5.03183 16.7108 4.98151 16.7765 4.9312L16.7677 4.69975H16.8159C16.8247 4.88089 16.8291 5.07208 16.8379 5.26328C16.9387 5.31359 16.8817 5.24315 16.943 5.3639H16.9912C17.0044 5.23309 17.0175 5.12239 17.0307 5.00164H16.9825C16.9825 5.00164 16.9825 4.9312 16.9825 4.90101H17.0307C17.0307 4.90101 17.0307 4.81045 17.0307 4.78026H17.0789C17.0789 4.8507 17.0833 4.92114 17.0877 5.00164C17.2323 4.89095 17.1753 4.72994 17.2936 5.08214L17.4952 5.04189C17.4558 4.9312 17.4207 4.82051 17.3813 4.71988H17.4295C17.4295 4.71988 17.4295 4.62931 17.4295 4.59912L17.5829 4.68969L17.5741 4.45824C17.7144 4.39787 17.7538 4.37774 17.8152 4.17648C17.916 4.21673 17.859 4.16642 17.9203 4.27711C17.8634 4.36768 17.8634 4.23686 17.8765 4.39787C17.9466 4.42806 18.0124 4.44818 18.0825 4.47837C18.0694 4.59912 18.0562 4.70982 18.0431 4.83057C18.1395 4.74001 18.0869 4.83057 18.1395 4.69975H18.1877C18.1439 4.94126 18.157 4.80038 18.2008 5.03183C18.2534 5.06202 18.3016 5.09221 18.3542 5.1224L18.3455 4.89095L18.2447 4.91107C18.2622 4.67963 18.271 4.579 18.3279 4.42806L18.4287 4.40793L18.3674 4.07585L18.5164 4.04567V4.15636C18.5164 4.15636 18.4857 4.15636 18.4726 4.15636L18.5295 4.37774L18.4287 4.39787L18.4375 4.62931L18.5865 4.59912V4.48843C18.5865 4.48843 18.6172 4.48843 18.6303 4.48843L18.6435 4.83057C18.8407 4.83057 18.7925 4.91107 18.9459 4.77019C18.9941 4.89095 18.9415 4.79032 18.9985 4.87082L18.9853 4.52868L19.0861 4.50856L19.0949 4.74001L19.2439 4.70982L19.2264 4.24692L19.3272 4.2268L19.3184 3.99535L19.5682 3.94504L19.5857 4.40793L19.4849 4.42806C19.5507 4.60919 19.52 4.579 19.6427 4.62931C19.7128 4.96139 19.6427 4.76013 19.7961 4.71988C19.7961 4.71988 19.7742 4.27711 19.7391 4.4985V4.60919C19.7391 4.60919 19.7084 4.60919 19.6953 4.60919C19.7347 4.46831 19.6865 4.58906 19.7391 4.48843V4.37774C19.8005 4.41799 19.8268 4.52868 19.9407 4.45824V4.34755C19.9407 4.34755 19.9714 4.34755 19.9845 4.34755V4.45824C20.1204 4.45824 20.1642 4.36768 20.2343 4.29724L20.2431 4.52868L20.1423 4.54881C20.0766 4.48843 20.1949 4.64944 20.1949 4.64944C20.265 4.67963 20.3308 4.69975 20.4009 4.72994V4.84063C20.471 4.83057 20.5367 4.82051 20.6069 4.80038V4.68969C20.4535 4.62931 20.5893 4.62931 20.4535 4.71988C20.4535 4.48843 20.4403 4.36768 20.4885 4.24692L20.5893 4.2268C20.5718 4.15636 20.5499 4.07585 20.5324 4.00541L20.6332 3.98529L20.677 3.74378L20.8786 3.70353C20.9049 3.67334 20.8961 3.4117 20.9706 3.45195C21.0364 3.61296 20.9356 3.57271 21.0276 3.67334C21.067 3.40164 21.1021 3.21045 21.0977 2.84818H21.1459C21.1547 3.02931 21.1591 3.22051 21.1678 3.4117C21.1985 3.37145 21.2336 3.32114 21.2643 3.28089C21.2862 3.39158 21.3037 3.50227 21.3256 3.61296C21.2029 3.56265 21.2117 3.51233 21.1152 3.42177C21.0758 3.56265 21.124 3.44189 21.0714 3.54252C21.1196 3.6834 21.1109 3.67334 21.181 3.75384C21.1459 3.91485 21.1503 3.89472 21.0889 4.00541C21.067 4.23686 21.0977 4.10604 21.0451 4.24692C21.0276 4.17648 21.0057 4.09598 20.9881 4.02554C20.9881 4.02554 21.0758 3.94504 21.032 3.78403H20.9838C20.9838 3.78403 20.9838 3.71359 20.9838 3.6834C20.8874 3.62302 20.9136 3.7639 20.8874 3.81422H20.8391C20.8391 3.81422 20.8391 3.90478 20.8391 3.93497L20.9399 3.91485C20.9224 4.06579 20.8523 4.13623 20.8479 4.16642L20.8611 4.50856H20.8128C20.8742 4.63938 20.8128 4.56894 20.918 4.60919V4.71988C20.9881 4.66956 21.0539 4.61925 21.1196 4.56894L21.1109 4.33749H21.1591C21.1591 4.43812 21.1678 4.55887 21.1722 4.66956H21.2204C21.216 4.50856 21.2117 4.35761 21.2029 4.19661H21.2511C21.2511 4.26705 21.2555 4.33749 21.2599 4.41799C21.422 4.34755 21.4045 4.28717 21.5009 4.13623L21.5097 4.36768L21.6105 4.34755L21.6017 4.11611L21.7507 4.08592V4.19661C21.7507 4.19661 21.72 4.19661 21.7069 4.19661C21.7507 4.32743 21.7069 4.20667 21.7595 4.29724V4.40793C21.7945 4.36768 21.8296 4.31736 21.8603 4.27711V4.3878C21.8997 4.3878 21.9304 4.37774 21.9655 4.36768C21.9129 4.19661 21.8822 4.13623 21.8033 4.05573V3.94504C21.8471 3.94504 21.8997 3.92491 21.9479 3.91485C21.9304 3.84441 21.9085 3.7639 21.891 3.69346C21.9698 3.50227 21.9304 3.78403 21.9874 3.56265H22.0356C22.0049 3.72365 21.9961 3.75384 22.0005 4.02554C22.0487 3.93497 22.0969 3.85447 22.1408 3.7639L22.1495 3.99535L22.0487 4.01548L22.0137 4.48843L22.1627 4.45824L22.1539 4.2268L22.2547 4.20667C22.2766 3.97522 22.2459 4.10604 22.2985 3.96516V3.85447C22.3424 3.85447 22.395 3.83434 22.4432 3.82428L22.4519 4.05573C22.3993 4.02554 22.3511 3.99535 22.2985 3.96516L22.3073 4.19661C22.4782 4.19661 22.544 4.24692 22.6185 4.48843L22.7675 4.45824C22.7193 4.31736 22.6974 4.40793 22.6579 4.24692H22.7061C22.7061 4.24692 22.7061 4.15636 22.7061 4.12617C22.579 4.01548 22.7675 3.99535 22.7982 3.8746C22.7806 3.80416 22.7587 3.72365 22.7412 3.65321C22.842 3.74378 22.8902 3.62302 22.8902 3.62302L22.9121 4.19661H22.9603C22.9603 4.19661 22.9603 4.26705 22.9603 4.29724C23.0129 4.32743 23.0611 4.35761 23.1137 4.3878V4.27711C23.1444 4.27711 23.1751 4.26705 23.2101 4.25699C23.197 3.96516 23.1531 3.9551 23.1444 3.80416L23.2452 3.78403C23.2233 3.67334 23.2057 3.56265 23.1838 3.45195C23.2452 3.54252 23.1926 3.43183 23.2364 3.55258C23.3898 3.7639 23.3504 3.75384 23.3065 4.11611C23.3854 4.16642 23.3898 4.19661 23.5125 4.19661L23.5037 3.96516L23.6045 3.94504L23.5607 4.18655C23.644 4.28717 23.644 4.06579 23.6571 4.05573C23.736 4.14629 23.6966 4.15636 23.7185 4.3878C23.7711 4.41799 23.8193 4.44818 23.8719 4.47837V4.36768C23.9026 4.36768 23.9332 4.35761 23.9683 4.34755C23.885 4.25699 23.9508 3.86453 23.9376 3.54252H23.9858C23.9858 3.61296 23.9902 3.6834 23.9946 3.7639C24.0647 3.79409 24.1305 3.81422 24.2006 3.84441L24.2181 4.3073L24.4679 4.25699C24.538 4.28717 24.4548 4.40793 24.5205 4.35761V4.24692C24.6607 4.15636 24.5775 4.32743 24.6607 4.10604H24.709C24.709 4.17648 24.7133 4.24692 24.7177 4.32743H24.7659C24.7572 4.12617 24.7528 3.93497 24.744 3.74378L24.8448 3.72365C24.8448 3.72365 24.8667 4.16642 24.9018 3.94504V3.83434C24.9018 3.83434 24.9325 3.83434 24.9456 3.83434C24.9325 3.9551 24.9193 4.06579 24.9062 4.18655H24.9544C24.9675 4.09598 24.9763 3.77397 24.9894 3.70353C24.9938 3.67334 25.0596 3.57271 25.0815 3.45195H25.1297C25.0946 3.6029 25.099 3.58277 25.0376 3.69346V3.80416C25.0902 3.80416 25.1428 3.78403 25.191 3.77397L25.2173 4.46831C25.3488 4.35761 25.3313 4.41799 25.3532 4.09598H25.4014C25.4408 3.78403 25.2524 3.83434 25.2831 3.64315L25.3839 3.62302V3.51233C25.3137 3.52239 25.248 3.53246 25.1779 3.55258L25.1691 3.32114C25.2524 3.34126 25.34 3.37145 25.4233 3.39158C25.4628 3.61296 25.4233 3.49221 25.4803 3.61296C25.511 3.21044 25.5767 3.30101 25.6074 2.8985L25.7082 2.87837C25.6687 3.0595 25.6424 3.12994 25.5723 3.2507C25.603 3.34126 25.6687 3.6029 25.7345 3.56265V3.45195C25.7345 3.45195 25.7652 3.45195 25.7783 3.45195V3.56265C25.7783 3.56265 25.7476 3.56265 25.7345 3.56265L25.7476 3.90478H25.6994C25.6994 4.02554 25.7082 4.14629 25.7126 4.25699H25.7608C25.7827 4.05573 25.7958 3.96516 25.7914 3.66328C25.9142 3.71359 25.9054 3.7639 26.0018 3.85447C25.9668 4.25699 25.9448 4.08592 25.866 4.33749C25.9185 4.41799 25.9185 4.46831 25.9755 4.54881V4.6595C26.0281 4.69975 26.1114 4.36768 26.1158 4.28718H26.0676C26.0676 4.28718 26.0676 4.21673 26.0676 4.18655C26.1201 4.21673 26.1684 4.24692 26.2209 4.27711C26.1727 4.13623 26.1815 4.14629 26.1114 4.06579V3.9551C26.1903 4.02554 26.2297 4.0356 26.3612 4.02554V3.91485C26.3217 3.91485 26.2911 3.92491 26.256 3.93497L26.2472 3.70353L26.1464 3.72365V3.61296C26.3524 3.65321 26.6636 3.6834 26.7381 3.38151H26.7863C26.6986 3.86453 26.7293 3.50227 26.7644 4.18655C26.8652 4.23686 26.8082 4.16642 26.8696 4.28718C26.966 4.19661 26.9134 4.3073 26.966 4.15636H26.9178C26.9178 4.15636 26.9178 4.08592 26.9178 4.05573C26.9528 4.08592 26.9879 4.11611 27.023 4.15636C27.001 4.00541 26.9791 3.85447 26.9572 3.70353H27.0054C27.0054 3.70353 26.9879 3.26076 27.0492 3.45195L27.058 3.6834C27.0887 3.64315 27.1238 3.59283 27.1544 3.55258C27.1807 3.61296 27.1194 3.89472 27.2114 3.77397C27.2289 3.67334 27.1544 3.48214 27.2552 3.53246C27.2771 3.6029 27.2246 3.86453 27.3122 3.75384C27.3122 3.75384 27.3604 3.56265 27.4042 3.50227C27.4437 3.72365 27.4875 3.94504 27.5269 4.17648C27.4656 4.08592 27.5182 4.19661 27.4744 4.07585L27.3736 4.09598V4.20667C27.3736 4.20667 27.413 4.20667 27.4262 4.20667L27.4393 4.54881H27.4875C27.5357 4.6595 27.4831 4.54881 27.5401 4.64944L27.5313 4.41799C27.5795 4.36768 27.6277 4.32743 27.676 4.27711V4.3878C27.7285 4.3878 27.7811 4.36768 27.8293 4.35761C27.7724 4.21673 27.7198 4.20667 27.6672 4.04567C27.7285 3.97522 27.654 4.01548 27.711 3.92491L27.8162 4.02554C27.8776 3.89472 27.7724 3.94504 27.86 3.78403C27.9082 3.90478 27.8556 3.80416 27.9126 3.88466C27.9126 3.88466 27.9214 4.33749 27.8688 4.12617V4.01548C27.8688 4.01548 27.8293 4.01548 27.8162 4.01548C27.8556 4.23686 27.8162 4.11611 27.8732 4.23686V4.34755C27.9521 4.24692 27.9915 4.21673 28.123 4.18655L28.1142 3.9551H28.1624C28.1624 4.05573 28.1712 4.17648 28.1756 4.28718C28.272 4.29724 28.2764 4.37774 28.2808 4.3878C28.3772 4.43812 28.3509 4.3073 28.3772 4.25699C28.4561 4.34755 28.4166 4.35761 28.4385 4.58906C28.6927 4.45824 28.5612 4.29724 28.7847 4.40793L28.776 4.17648C28.8724 4.08592 28.8198 4.17648 28.8724 4.04567H28.9206C28.9863 4.21673 28.9118 4.36768 29.0433 4.58906V4.69975C29.0959 4.69975 29.1485 4.67963 29.1967 4.66956C29.2186 4.36768 29.2362 4.32743 29.3326 4.18655V4.07585C29.3939 4.15636 29.3852 4.16642 29.4377 4.28718H29.486C29.4991 4.15636 29.5123 4.04567 29.5254 3.92491H29.4772C29.4553 3.78403 29.4334 3.63309 29.4115 3.48214C29.5123 3.53246 29.4553 3.46202 29.5166 3.58277H29.5648C29.5517 3.69346 29.5386 3.81422 29.5254 3.92491C29.578 3.99535 29.6306 4.05573 29.6832 4.12617C29.727 4.3878 29.7708 4.64944 29.8103 4.91107C30.0294 4.89095 30.1171 4.92114 30.1477 4.4985L30.2967 4.46831L30.3186 5.04189H30.3669C30.3669 4.95133 30.3625 4.88089 30.3581 4.80038C30.4545 4.70982 30.4019 4.80038 30.4545 4.66956C30.643 4.68969 30.6167 4.75007 30.7175 4.97145H30.7657C30.7876 5.07208 30.8051 5.18277 30.827 5.29346L30.9278 5.27334L30.9147 4.9312C31.0111 4.97145 31.2039 5.29346 31.2784 5.21296V5.10227C31.2784 5.10227 31.3091 5.10227 31.3223 5.10227L31.2828 5.45447C31.4976 5.37397 31.7123 5.29346 31.9314 5.21296C31.9533 5.03183 31.9665 5.02177 31.9665 4.74001H32.0147C32.0147 4.81045 32.0191 4.88089 32.0235 4.96139L32.1243 4.94126V5.05195C32.304 5.15258 32.2295 4.75007 32.2645 4.67963C32.3171 4.75007 32.3697 4.81045 32.4223 4.88089C32.431 4.68969 32.4442 4.48843 32.453 4.29724H32.5012C32.5012 4.17648 32.4924 4.05573 32.488 3.94504H32.4398C32.4398 3.94504 32.4398 3.8746 32.4398 3.84441C32.3478 3.71359 32.19 3.84441 32.1374 3.90478L32.1287 3.67334C31.9533 3.6029 31.9928 3.45195 31.8175 3.38151L31.8087 3.15007L31.9095 3.12994C31.949 3.35133 31.9095 3.23057 31.9665 3.35133V3.24063C31.9665 3.24063 31.9972 3.24063 32.0103 3.24063L31.9972 2.8985H32.0454C32.0454 2.8985 32.0454 2.80793 32.0454 2.77774L32.098 2.87837L32.3478 2.82806L32.5143 3.26076C32.5625 3.17019 32.6107 3.08969 32.6546 2.99912V3.10982C32.8079 3.08969 32.7992 3.03938 32.8518 2.83812H32.9C32.8868 2.90856 32.8737 2.98906 32.8562 3.06956C33.0227 2.99912 33.1892 2.92868 33.3514 2.85824L33.3952 2.61673C33.4303 2.64692 33.4653 2.67711 33.5004 2.71736C33.5135 2.59661 33.5267 2.48592 33.5398 2.36516C33.5398 2.36516 33.7677 2.53623 33.8422 2.42554V2.31485C33.8685 2.2746 33.9036 2.22428 33.9343 2.18403C33.8861 1.86202 33.8335 1.87208 33.7634 1.64063L33.908 1.49975L33.9167 1.7312L34.0175 1.71107C34.0263 1.51988 34.0395 1.31862 34.0482 1.12743C33.9956 1.09724 33.9474 1.06705 33.8948 1.03686L33.8466 0.946294ZM8.33128 6.30982H8.28307C8.28307 6.30982 8.28307 6.23938 8.28307 6.20919H8.33128C8.33128 6.20919 8.34881 6.28969 8.35757 6.34001C8.35757 6.34001 8.34881 6.31988 8.33566 6.30982H8.33128Z" fill="#FFA4BD"/>
<path fill-rule="evenodd" clip-rule="evenodd" d="M6.04796 1.63999V1.5293C6.00852 1.5293 5.97784 1.53936 5.94278 1.54942C6.00414 1.67018 5.94278 1.59974 6.04796 1.65005V1.63999Z" fill="#FFA4BD"/>
<path fill-rule="evenodd" clip-rule="evenodd" d="M18.0168 0.905275V0.794583C18.065 0.683891 18.0168 0.804646 18.0606 0.673828L17.9598 0.693954C17.9992 0.915338 17.9598 0.794583 18.0168 0.915338V0.905275Z" fill="#FFA4BD"/>
<path fill-rule="evenodd" clip-rule="evenodd" d="M18.2183 0.865575V0.754883C18.1789 0.754883 18.1482 0.764946 18.1132 0.775009C18.1745 0.895763 18.1132 0.825323 18.2183 0.875638V0.865575Z" fill="#FFA4BD"/>
<path fill-rule="evenodd" clip-rule="evenodd" d="M20.5148 0.322266L20.3132 0.362517V0.473209C20.3834 0.463146 20.4491 0.453083 20.5192 0.432957V0.322266H20.5148Z" fill="#FFA4BD"/>
<path fill-rule="evenodd" clip-rule="evenodd" d="M21.2248 0.412109L21.2336 0.643556H21.2818C21.2423 0.412109 21.2818 0.532864 21.2248 0.412109Z" fill="#FFA4BD"/>
<path fill-rule="evenodd" clip-rule="evenodd" d="M22.728 0.131157C22.7894 0.251911 22.728 0.181471 22.8332 0.231786V0.121094C22.7938 0.121094 22.7631 0.131157 22.728 0.14122V0.131157Z" fill="#FFA4BD"/>
<path fill-rule="evenodd" clip-rule="evenodd" d="M20.8347 0.72495V0.614258C20.7953 0.614258 20.7646 0.624321 20.7296 0.634384C20.7909 0.755138 20.7296 0.684698 20.8347 0.735013V0.72495Z" fill="#FFA4BD"/>
<path fill-rule="evenodd" clip-rule="evenodd" d="M21.5403 0.70406C21.5886 0.824815 21.536 0.724186 21.5929 0.804689L21.5842 0.573242L21.4834 0.593368C21.5316 0.714123 21.479 0.613494 21.536 0.693997L21.5403 0.70406Z" fill="#FFA4BD"/>
<path fill-rule="evenodd" clip-rule="evenodd" d="M23.9902 0.241551V0.130859C23.9507 0.130859 23.9201 0.140922 23.885 0.150985C23.9464 0.27174 23.885 0.2013 23.9902 0.251614V0.241551Z" fill="#FFA4BD"/>
<path fill-rule="evenodd" clip-rule="evenodd" d="M24.3057 0.533543V0.422852C24.2663 0.422852 24.2356 0.432914 24.2006 0.442977C24.2619 0.563732 24.2006 0.493292 24.3057 0.543606V0.533543Z" fill="#FFA4BD"/>
<path fill-rule="evenodd" clip-rule="evenodd" d="M25.3576 0.332074H25.3094C25.2612 0.221382 25.3137 0.332074 25.2568 0.231445L25.2655 0.462892C25.362 0.372326 25.3094 0.462892 25.362 0.332074H25.3576Z" fill="#FFA4BD"/>
<path fill-rule="evenodd" clip-rule="evenodd" d="M26.1158 0.422215V0.311523C26.1158 0.311523 26.0763 0.311523 26.0632 0.311523L26.0763 0.653662L26.1771 0.633536C26.1377 0.412152 26.1771 0.532907 26.1201 0.412152L26.1158 0.422215Z" fill="#FFA4BD"/>
<path fill-rule="evenodd" clip-rule="evenodd" d="M14.48 4.9209L14.4888 5.15235H14.537C14.4975 4.9209 14.537 5.04165 14.48 4.9209Z" fill="#FFA4BD"/>
<path fill-rule="evenodd" clip-rule="evenodd" d="M13.0425 5.54429V5.43359C13.0031 5.43359 12.9724 5.44366 12.9373 5.45372C12.9987 5.57447 12.9373 5.50403 13.0425 5.55435V5.54429Z" fill="#FFA4BD"/>
<path fill-rule="evenodd" clip-rule="evenodd" d="M19.3447 4.23633L19.2439 4.25645L19.2526 4.4879L19.3534 4.46777L19.3447 4.23633Z" fill="#FFA4BD"/>
<path fill-rule="evenodd" clip-rule="evenodd" d="M4.78577 7.31543C4.88218 7.22486 4.82959 7.31543 4.88218 7.18461H4.83397C4.83397 7.18461 4.83397 7.11417 4.83397 7.08398H4.78577C4.78577 7.17455 4.79015 7.24499 4.79453 7.32549L4.78577 7.31543Z" fill="#FFA4BD"/>
<path fill-rule="evenodd" clip-rule="evenodd" d="M9.13327 6.26953C9.19901 6.45066 9.16833 6.42047 9.29104 6.47079V6.3601C9.23407 6.32991 9.18586 6.29972 9.13327 6.26953Z" fill="#FFA4BD"/>
<path fill-rule="evenodd" clip-rule="evenodd" d="M10.3867 6.0377V6.1484C10.3867 6.1484 10.356 6.1484 10.3429 6.1484V6.25909C10.3823 6.25909 10.413 6.24902 10.448 6.23896C10.4086 6.01758 10.448 6.13833 10.3911 6.01758L10.3867 6.0377Z" fill="#FFA4BD"/>
<path fill-rule="evenodd" clip-rule="evenodd" d="M4.98299 7.16504H4.93478C4.93478 7.25561 4.93917 7.32605 4.94355 7.40655C5.03997 7.31598 4.98737 7.40655 5.03997 7.27573H4.99176C4.99176 7.27573 4.99176 7.20529 4.99176 7.1751L4.98299 7.16504Z" fill="#FFA4BD"/>
<path fill-rule="evenodd" clip-rule="evenodd" d="M15.751 5.26304V5.15234C15.7115 5.15234 15.6808 5.16241 15.6458 5.17247C15.7071 5.29322 15.6458 5.22278 15.751 5.2731V5.26304Z" fill="#FFA4BD"/>
<path fill-rule="evenodd" clip-rule="evenodd" d="M16.6494 4.98145L16.6581 5.21289H16.7064C16.6669 4.98145 16.7064 5.1022 16.6494 4.98145Z" fill="#FFA4BD"/>
<path fill-rule="evenodd" clip-rule="evenodd" d="M9.29982 6.59108L9.44883 6.56089V6.4502C9.39624 6.4502 9.34365 6.47032 9.29544 6.48038V6.59108H9.29982Z" fill="#FFA4BD"/>
<path fill-rule="evenodd" clip-rule="evenodd" d="M10.7987 6.30991V6.19922C10.7592 6.19922 10.7285 6.20928 10.6935 6.21934C10.7548 6.3401 10.6935 6.26966 10.7987 6.31997V6.30991Z" fill="#FFA4BD"/>
<path fill-rule="evenodd" clip-rule="evenodd" d="M15.4047 5.4437V5.33301C15.3653 5.33301 15.3346 5.34307 15.2996 5.35313C15.3609 5.47389 15.2996 5.40345 15.4047 5.45376V5.4437Z" fill="#FFA4BD"/>
<path fill-rule="evenodd" clip-rule="evenodd" d="M19.4104 4.68979V4.5791C19.371 4.5791 19.3403 4.58916 19.3052 4.59923C19.3666 4.71998 19.3052 4.64954 19.4104 4.69986V4.68979Z" fill="#FFA4BD"/>
<path fill-rule="evenodd" clip-rule="evenodd" d="M19.818 4.72983V4.61914C19.7785 4.61914 19.7479 4.6292 19.7128 4.63927C19.7742 4.76002 19.7128 4.68958 19.818 4.7399V4.72983Z" fill="#FFA4BD"/>
<path fill-rule="evenodd" clip-rule="evenodd" d="M22.1232 4.41729L22.224 4.39716C22.1846 4.17578 22.224 4.29654 22.1671 4.17578V4.28647C22.1188 4.39717 22.1671 4.27641 22.1232 4.40723V4.41729Z" fill="#FFA4BD"/>
<path fill-rule="evenodd" clip-rule="evenodd" d="M25.5329 3.89453L25.5241 3.66309L25.4233 3.68321C25.4715 3.80397 25.4189 3.70334 25.4759 3.78384C25.5241 3.9046 25.4715 3.80397 25.5285 3.88447L25.5329 3.89453Z" fill="#FFA4BD"/>
<path fill-rule="evenodd" clip-rule="evenodd" d="M26.4795 3.59277L26.4883 3.82422H26.5365C26.497 3.59277 26.5365 3.71353 26.4795 3.59277Z" fill="#FFA4BD"/>
<path fill-rule="evenodd" clip-rule="evenodd" d="M26.5978 4.03482H26.646C26.646 3.91406 26.6373 3.79331 26.6329 3.68262H26.5847C26.5847 3.80337 26.5935 3.92413 26.5978 4.03482Z" fill="#FFA4BD"/>
<path fill-rule="evenodd" clip-rule="evenodd" d="M24.0384 4.3978V4.28711C23.999 4.28711 23.9683 4.29717 23.9332 4.30724C23.9946 4.42799 23.9332 4.35755 24.0384 4.40786V4.3978Z" fill="#FFA4BD"/>
<path fill-rule="evenodd" clip-rule="evenodd" d="M24.9894 4.2269V4.11621C24.95 4.11621 24.9193 4.12627 24.8842 4.13634C24.9456 4.25709 24.8842 4.18665 24.9894 4.23697V4.2269Z" fill="#FFA4BD"/>
<path fill-rule="evenodd" clip-rule="evenodd" d="M25.489 4.01465L25.4978 4.24609C25.5942 4.15553 25.5416 4.2461 25.5942 4.11528H25.546C25.4978 4.00459 25.5504 4.11528 25.4934 4.01465H25.489Z" fill="#FFA4BD"/>
<path fill-rule="evenodd" clip-rule="evenodd" d="M26.5452 4.04526V3.93457C26.5058 3.93457 26.4751 3.94463 26.4401 3.9547C26.5014 4.07545 26.4401 4.00501 26.5452 4.05533V4.04526Z" fill="#FFA4BD"/>
<path fill-rule="evenodd" clip-rule="evenodd" d="M27.2552 4.14555H27.207C27.207 4.04492 27.1982 3.92417 27.1938 3.81348C27.1938 3.81348 27.001 3.86379 27.0974 3.94429H27.1456C27.1456 4.04492 27.1544 4.16568 27.1588 4.27637C27.1588 4.27637 27.3516 4.22606 27.2552 4.14555Z" fill="#FFA4BD"/>
<path fill-rule="evenodd" clip-rule="evenodd" d="M29.2843 4.45831C29.3851 4.47843 29.4859 4.49856 29.5867 4.51868L29.578 4.28724L29.3764 4.32749V4.2168C29.3238 4.2168 29.2712 4.23692 29.223 4.24699L29.28 4.46837L29.2843 4.45831Z" fill="#FFA4BD"/>
</g>
<defs>
<clipPath id="clip0_2007_261">
<rect width="34" height="8" fill="white"/>
</clipPath>
</defs>
</svg>
