<svg width="393" height="180" viewBox="0 0 393 180" fill="none" xmlns="http://www.w3.org/2000/svg">
<path d="M310.622 130.738C330.051 103.717 317.883 69.4536 283.444 54.2091C249.004 38.9647 205.335 48.5118 185.905 75.5333C166.476 102.555 178.644 136.818 213.084 152.062C247.523 167.307 291.192 157.76 310.622 130.738Z" fill="#E5647E"/>
<path d="M165.351 155.542C204.893 155.542 236.949 130.391 236.949 99.3662C236.949 68.3412 204.893 43.1904 165.351 43.1904C125.809 43.1904 93.7542 68.3412 93.7542 99.3662C93.7542 130.391 125.809 155.542 165.351 155.542Z" fill="#E5647E"/>
<path d="M111.609 130.942C148.659 120.103 167.494 87.7495 153.678 58.6798C139.863 29.61 98.628 14.8318 61.578 25.6716C24.528 36.5114 5.69275 68.8645 19.5083 97.9342C33.3239 127.004 74.5586 141.782 111.609 130.942Z" fill="#E5647E"/>
<path d="M122.579 63.7832C162.121 63.7832 194.177 38.6324 194.177 7.60742C194.177 -23.4176 162.121 -48.5684 122.579 -48.5684C83.0373 -48.5684 50.9821 -23.4176 50.9821 7.60742C50.9821 38.6324 83.0373 63.7832 122.579 63.7832Z" fill="#E5647E"/>
<path d="M65.5872 80.5518C102.637 69.712 121.472 37.3589 107.657 8.28914C93.8412 -20.7806 52.6065 -35.5589 15.5565 -24.719C-21.4935 -13.8792 -40.3287 18.4739 -26.5132 47.5436C-12.6976 76.6134 28.5371 91.3916 65.5872 80.5518Z" fill="#E5647E"/>
<path d="M442.835 34.5686C443.456 3.54737 411.908 -21.9954 372.371 -22.4827C332.834 -22.97 300.279 1.78263 299.658 32.8038C299.037 63.825 330.585 89.3677 370.122 89.855C409.659 90.3423 442.214 65.5898 442.835 34.5686Z" fill="#E5647E"/>
<path d="M331.138 145.462C370.68 145.462 402.735 120.311 402.735 89.2861C402.735 58.2611 370.68 33.1104 331.138 33.1104C291.596 33.1104 259.541 58.2611 259.541 89.2861C259.541 120.311 291.596 145.462 331.138 145.462Z" fill="#E5647E"/>
<path d="M234.052 53.1124C271.48 43.1039 291.481 11.1842 278.725 -18.1821C265.968 -47.5484 225.286 -63.241 187.858 -53.2324C150.43 -43.2239 130.43 -11.3042 143.186 18.0621C155.942 47.4284 196.624 63.121 234.052 53.1124Z" fill="#E5647E"/>
<path d="M351.839 14.4159C361.987 -15.5701 339.231 -46.333 301.014 -54.2948C262.796 -62.2567 223.588 -44.4026 213.44 -14.4165C203.293 15.5695 226.048 46.3323 264.266 54.2941C302.484 62.256 341.692 44.4019 351.839 14.4159Z" fill="#E5647E"/>
</svg>
