<svg width="189" height="18" viewBox="0 0 189 18" fill="none" xmlns="http://www.w3.org/2000/svg">
<path d="M75.0747 14.5131L75.0517 14.3751C76.2247 14.1221 76.4317 13.8921 76.5467 13.1331C76.6157 12.7191 76.7077 11.5921 76.7077 9.66013V5.42813C76.7077 2.87513 76.6387 1.97813 76.5467 1.26513C76.5007 0.897132 76.3627 0.621132 75.1207 0.322132C75.0057 0.299132 74.9597 0.276133 74.9597 0.230132C74.9597 0.138132 75.0057 0.0921323 75.0517 0.0461316C75.6037 0.0461316 76.7997 0.0921323 77.6967 0.0921323C78.2717 0.0921323 79.9737 0.000132143 80.8247 0.000132143C82.0207 0.000132143 83.6307 0.184133 85.1027 1.28813C86.3907 2.23113 86.7357 3.72613 86.7357 4.43913C86.7357 5.86513 86.1837 6.87713 85.3097 7.61313C83.8607 8.83213 81.7217 9.29213 80.0197 9.29213C79.6747 9.29213 79.3757 9.29213 79.2607 9.29213C79.1457 9.29213 79.0997 9.31513 79.0997 9.63713C79.0997 10.8331 79.1457 11.7301 79.2377 12.6501C79.3067 13.3861 79.3987 13.6161 79.9967 13.9151C80.2037 14.0071 80.6637 14.1221 81.2387 14.2141C81.3767 14.2371 81.3997 14.2601 81.3997 14.3291C81.3997 14.4211 81.3767 14.5361 81.3307 14.5361C79.4447 14.5361 78.5477 14.5361 78.2947 14.5361C77.0527 14.5361 75.9947 14.6281 75.3277 14.6511C75.1437 14.6511 75.1207 14.6281 75.0747 14.5131ZM83.8607 4.62313C83.8607 2.16213 82.7567 0.414132 80.4337 0.414132C80.1117 0.414132 79.7437 0.529132 79.5137 0.713133C79.3757 0.828132 79.2837 0.966132 79.2607 1.33413C79.1917 2.16213 79.1457 6.78513 79.1457 8.32613C79.1457 8.51013 79.2147 8.57913 79.3987 8.67113C79.6747 8.78613 80.1117 8.90113 80.4567 8.90113C80.8247 8.90113 81.3537 8.80913 81.7907 8.60213C83.2167 7.98113 83.8607 6.41713 83.8607 4.62313ZM91.2908 5.77313C93.3378 5.77313 95.6378 7.22213 95.6378 10.2351C95.6378 12.3511 94.0968 13.5471 93.6598 13.8001C92.8778 14.2371 91.6818 14.7431 90.9228 14.7431C89.6348 14.7431 88.1628 14.2371 87.3348 13.1561C86.7368 12.3971 86.4148 11.5461 86.4148 10.3961C86.4148 9.52213 86.6908 8.41813 87.3348 7.65913C87.8178 7.08413 88.2318 6.78513 88.9448 6.46313C89.5658 6.18713 90.7388 5.77313 91.2908 5.77313ZM90.5778 6.32513C90.1408 6.32513 89.8878 6.41713 89.6118 6.76213C89.2668 7.22213 89.0368 8.07313 89.0368 9.86713C89.0368 11.0861 89.4738 12.6731 89.9568 13.2481C90.5778 13.9611 91.0838 14.1681 91.5208 14.1681C91.8658 14.1681 92.2798 14.0301 92.5558 13.7541C92.9238 13.2941 93.1308 12.4661 93.1308 11.0861C93.1308 9.75213 92.9008 7.86613 92.1188 7.03813C91.7278 6.60113 91.1068 6.32513 90.5778 6.32513ZM99.3715 1.10413C99.9925 1.10413 100.291 1.65613 100.291 2.16213C100.291 2.99013 99.6475 3.40413 99.1185 3.40413C98.6585 3.40413 98.1065 2.99013 98.1065 2.27713C98.1065 1.44913 99.0035 1.10413 99.3715 1.10413ZM97.7155 9.98213L97.6005 7.54413C97.5775 7.45213 97.4165 7.31413 96.9105 7.03813C96.8415 6.99213 96.8415 6.90013 96.8415 6.87713C96.8645 6.80813 96.8875 6.76213 96.9795 6.73913C97.6465 6.60113 99.0495 6.23313 99.9005 5.81913C99.9925 5.77313 100.038 5.75013 100.084 5.75013C100.107 5.75013 100.13 5.79613 100.107 5.91113C100.015 7.45213 99.9005 10.4651 99.9005 11.7761C99.9005 12.6731 99.9005 13.3171 99.9465 13.6621C99.9695 13.8921 100.015 13.9841 100.429 14.0991C100.705 14.1681 100.981 14.1911 101.073 14.2371C101.119 14.2371 101.165 14.3291 101.142 14.3981L101.073 14.4901C101.05 14.5821 101.004 14.5821 100.866 14.5821C100.383 14.5821 99.6705 14.5361 99.0725 14.5361C97.8305 14.5361 96.8415 14.6741 96.6805 14.6741C96.7035 14.6741 96.6345 14.6511 96.6345 14.6281C96.6115 14.5591 96.5885 14.5361 96.5885 14.4901C96.5885 14.4441 96.6575 14.4211 96.7265 14.3981C97.2555 14.1911 97.4855 13.9381 97.5775 13.3401C97.6465 12.9491 97.7845 11.5461 97.7155 9.98213ZM101.642 14.5131L101.688 14.3751C102.401 14.0071 102.539 13.8921 102.585 13.3631C102.677 12.6041 102.723 11.3391 102.723 10.3041C102.723 9.33813 102.654 8.48713 102.608 8.00413C102.585 7.75113 102.516 7.65913 101.78 7.24513C101.711 7.22213 101.711 7.17613 101.734 7.10713C101.757 7.01513 101.78 6.96913 101.849 6.94613C103.298 6.44013 104.31 5.86513 104.632 5.68113C104.701 5.63513 104.77 5.61213 104.839 5.61213C104.862 5.61213 104.954 5.65813 104.977 5.77313C105.023 6.02613 104.954 6.41713 104.954 7.10713C104.954 7.22213 105 7.26813 105.069 7.22213C105.874 6.73913 106.38 6.44013 106.909 6.16413C107.3 5.95713 107.645 5.84213 108.082 5.84213C108.634 5.84213 109.186 6.02613 109.738 6.46313C110.221 6.83113 110.612 7.61313 110.658 8.74013C110.681 9.13113 110.704 9.86713 110.681 10.4881C110.658 11.5461 110.635 12.7191 110.612 13.8001C110.612 13.9841 110.75 14.0071 110.934 14.0071C111.233 14.0301 111.463 14.0301 111.716 14.0531C111.808 14.0531 111.854 14.0761 111.854 14.1221C111.854 14.1911 111.808 14.3981 111.716 14.4901C111.67 14.5591 111.647 14.5591 111.555 14.5591C109.485 14.5591 108.22 14.6741 107.737 14.6741C107.576 14.6741 107.484 14.6511 107.438 14.5591V14.4901C108.013 14.0761 108.128 13.8461 108.197 13.5931C108.312 13.2481 108.381 12.2821 108.381 9.40713C108.381 8.46413 108.22 8.00413 107.829 7.68213C107.461 7.38313 107.139 7.22213 106.472 7.22213C106.035 7.22213 105.322 7.38313 105.115 7.54413C105.023 7.61313 105 7.77413 104.977 8.21113C104.954 9.01613 104.954 11.9601 105.023 13.3171C105.046 13.7541 105.115 13.7771 105.851 14.1911C105.966 14.2601 105.989 14.3291 105.943 14.3981L105.874 14.5361H103.827C102.654 14.5361 102.01 14.6511 101.757 14.6511C101.665 14.6511 101.596 14.6281 101.642 14.5131ZM115.668 4.14013C115.737 4.14013 115.806 4.20913 115.806 4.48513C115.806 4.89913 115.714 5.98013 115.714 6.21013C116.703 6.21013 117.968 6.07213 118.52 6.07213C118.681 6.07213 118.704 6.09513 118.704 6.16413C118.704 6.27913 118.658 6.64713 118.566 6.90013C118.497 7.08413 118.336 7.13013 118.083 7.13013C117.669 7.15313 116.887 7.13013 115.898 7.15313C115.783 7.15313 115.668 7.26813 115.668 7.40613C115.599 9.43013 115.622 11.1551 115.622 12.1671C115.622 13.1331 116.312 13.6161 116.795 13.6161C117.163 13.6161 117.761 13.5241 118.175 13.2481C118.29 13.1561 118.382 13.1331 118.428 13.1561C118.474 13.2021 118.543 13.2941 118.543 13.3401C118.543 13.4091 118.474 13.5011 118.29 13.6161C117.163 14.3521 116.289 14.8121 115.3 14.8121C114.771 14.8121 114.104 14.5821 113.667 14.0301C113.368 13.6621 113.322 13.1101 113.345 12.5121C113.414 10.7181 113.414 8.05013 113.437 7.36013C113.437 7.29113 113.368 7.19913 113.299 7.19913C112.931 7.17613 112.724 7.13013 112.517 7.10713C112.333 7.06113 112.264 7.01513 112.333 6.96913C112.885 6.46313 114.173 5.42813 115.208 4.46213C115.484 4.20913 115.599 4.14013 115.668 4.14013Z" fill="#E5647E"/>
<line x1="142" y1="9.46582" x2="189" y2="9.46582" stroke="#E5647E"/>
<line y1="9.46582" x2="47" y2="9.46582" stroke="#E5647E"/>
</svg>
